<svg width="318" height="224" viewBox="0 0 318 224" fill="none" xmlns="http://www.w3.org/2000/svg">
<path d="M33.0787 0.149391C34.1983 0.142446 35.3178 0.1355 36.4712 0.128344C40.2067 0.11011 43.9415 0.120329 47.677 0.130608C50.3616 0.123547 53.0462 0.114938 55.7307 0.1045C62.2561 0.0829038 68.7813 0.0829754 75.3067 0.0911254C80.6125 0.0974359 85.9182 0.0962788 91.224 0.0898533C91.9804 0.0889517 92.7367 0.08805 93.516 0.0871211C95.0527 0.0852698 96.5894 0.0834072 98.1261 0.0815335C112.523 0.0649703 126.92 0.0736616 141.316 0.0905191C154.475 0.105214 167.633 0.0905874 180.792 0.0617489C194.319 0.0323257 207.845 0.0213912 221.372 0.0309311C222.903 0.0319536 224.434 0.0329482 225.965 0.0339146C227.095 0.0346292 227.095 0.0346292 228.248 0.0353582C233.544 0.0375185 238.84 0.0277389 244.136 0.0131436C250.595 -0.00440994 257.054 -0.00421937 263.513 0.0184952C266.805 0.0296105 270.097 0.0301404 273.39 0.0141945C276.966 -0.0017536 280.541 0.0132344 284.118 0.0358658C285.148 0.0240301 286.179 0.0121944 287.241 0C296.113 0.113753 302.921 2.99482 309.537 8.91405C317.577 17.8242 317.243 27.6898 317.195 39.0505C317.202 40.809 317.211 42.5675 317.221 44.326C317.244 49.0823 317.241 53.8382 317.232 58.5945C317.227 62.5731 317.234 66.5515 317.241 70.5301C317.258 79.9194 317.255 89.3086 317.238 98.698C317.221 108.368 317.237 118.037 317.269 127.707C317.296 136.026 317.303 144.344 317.295 152.663C317.29 157.624 317.292 162.585 317.313 167.547C317.331 172.213 317.325 176.879 317.3 181.545C317.295 183.252 317.299 184.959 317.311 186.666C317.389 198.035 316.324 206.782 308.412 215.539C301.136 222.036 293.751 223.255 284.245 223.179C283.125 223.186 282.006 223.193 280.852 223.2C277.117 223.218 273.382 223.208 269.646 223.198C266.962 223.205 264.277 223.213 261.593 223.224C255.067 223.245 248.542 223.245 242.017 223.237C236.711 223.231 231.405 223.232 226.099 223.238C225.343 223.239 224.587 223.24 223.807 223.241C222.271 223.243 220.734 223.245 219.197 223.247C204.8 223.263 190.404 223.254 176.007 223.238C162.848 223.223 149.69 223.238 136.531 223.266C123.005 223.296 109.478 223.307 95.9515 223.297C94.4203 223.296 92.8891 223.295 91.3578 223.294C90.2279 223.293 90.2279 223.293 89.0751 223.293C83.7792 223.291 78.4834 223.3 73.1875 223.315C66.7284 223.333 60.2696 223.332 53.8105 223.31C50.5179 223.299 47.226 223.298 43.9334 223.314C40.357 223.33 36.782 223.315 33.2057 223.292C32.1749 223.304 31.144 223.316 30.0819 223.328C21.2102 223.214 14.4021 220.333 7.78664 214.414C-0.253873 205.504 0.0801181 195.638 0.12819 184.278C0.121124 182.519 0.112377 180.761 0.102082 179.002C0.0796524 174.246 0.0825142 169.49 0.0914049 164.734C0.0965287 160.755 0.0892112 156.777 0.081933 152.798C0.0649544 143.409 0.068478 134.019 0.0852213 124.63C0.102142 114.96 0.0863032 105.291 0.053998 95.6211C0.0272646 87.3023 0.0200351 78.9837 0.028512 70.6648C0.0334301 65.7036 0.0312899 60.7427 0.0107279 55.7815C-0.0076884 51.115 -0.00160196 46.4492 0.0229235 41.7828C0.0279125 40.076 0.0244935 38.3692 0.0117769 36.6626C-0.0661966 25.2932 0.999023 16.5463 8.91164 7.78905C16.1874 1.29199 23.5723 0.0735593 33.0787 0.149391ZM32.6616 16.6641C36.3971 20.3996 40.0983 23.8746 44.0991 27.2891C44.7082 27.8105 45.3173 28.3319 45.9448 28.8691C50.666 32.8818 55.5064 36.7184 60.4028 40.5137C65.2684 44.3049 69.9519 48.2826 74.616 52.3176C79.8811 56.8707 85.2546 61.2804 90.6616 65.6641C99.2762 72.6941 107.859 79.7625 116.44 86.8335C118.605 88.6172 120.77 90.4005 122.935 92.1836C123.634 92.7593 124.332 93.335 125.052 93.9282C126.455 95.0827 127.86 96.2347 129.268 97.3843C132.962 100.407 136.604 103.473 140.193 106.621C140.941 107.266 141.689 107.911 142.46 108.576C143.884 109.805 145.295 111.049 146.691 112.311C150.833 115.853 154.116 117.589 159.626 117.843C162.634 117.578 164.329 116.544 166.662 114.664C167.42 114.08 168.178 113.496 168.959 112.895C169.768 112.22 170.578 111.546 171.412 110.852C172.373 110.055 173.335 109.258 174.326 108.437C175.121 107.776 175.121 107.776 175.932 107.101C178.495 104.972 181.068 102.858 183.641 100.741C185.829 98.942 188.015 97.1412 190.201 95.3398C194.52 91.7804 198.841 88.2221 203.162 84.6641C204.578 83.4974 205.995 82.3307 207.412 81.1641C249.912 46.1641 249.912 46.1641 252.04 44.4119C253.447 43.2529 254.854 42.0935 256.26 40.9338C259.945 37.8969 263.635 34.8672 267.334 31.8476C268.1 31.2205 268.866 30.5934 269.656 29.9473C271.116 28.7524 272.578 27.5595 274.043 26.3691C274.706 25.8258 275.369 25.2825 276.052 24.7226C276.63 24.2514 277.208 23.7802 277.803 23.2947C280.193 21.1974 282.413 18.9125 284.662 16.6641C201.502 16.6641 118.342 16.6641 32.6616 16.6641ZM17.6616 27.6641C16.2394 30.5086 16.5324 32.9086 16.5279 36.0903C16.5257 36.7574 16.5234 37.4246 16.5211 38.112C16.5147 40.3582 16.5156 42.6044 16.5164 44.8506C16.5134 46.4569 16.51 48.0632 16.5062 49.6695C16.4973 54.0415 16.495 58.4136 16.4944 62.7856C16.4934 66.4336 16.4898 70.0816 16.4862 73.7296C16.4781 82.3376 16.4756 90.9457 16.4763 99.5537C16.4769 108.434 16.4664 117.315 16.4506 126.196C16.4375 133.817 16.4322 141.438 16.4328 149.059C16.433 153.613 16.4302 158.166 16.4196 162.719C16.4099 167.003 16.4099 171.288 16.4171 175.572C16.4182 177.144 16.4158 178.715 16.4098 180.286C16.402 182.434 16.4067 184.582 16.4144 186.73C16.4139 187.931 16.4133 189.132 16.4127 190.37C16.782 195.257 17.8022 198.614 20.9116 202.414C26.7751 207.211 32.9104 206.951 40.1375 206.918C41.1919 206.921 42.2464 206.924 43.3328 206.927C46.8656 206.935 50.3983 206.929 53.9312 206.923C56.4642 206.926 58.9971 206.929 61.5301 206.933C67.6956 206.942 73.861 206.94 80.0265 206.935C85.0377 206.93 90.049 206.93 95.0602 206.932C96.1305 206.932 96.1305 206.932 97.2223 206.933C98.6718 206.933 100.121 206.934 101.571 206.935C115.16 206.94 128.748 206.934 142.337 206.923C153.995 206.914 165.652 206.916 177.309 206.925C190.85 206.936 204.39 206.94 217.931 206.934C219.375 206.933 220.819 206.932 222.263 206.932C222.974 206.931 223.684 206.931 224.416 206.931C229.421 206.929 234.425 206.932 239.43 206.937C246.167 206.943 252.904 206.938 259.641 206.927C262.116 206.924 264.59 206.925 267.064 206.929C270.438 206.935 273.812 206.928 277.186 206.918C278.168 206.922 279.15 206.927 280.162 206.932C286.463 206.895 291.36 206.547 296.412 202.414C300.384 197.558 300.912 192.874 300.916 186.73C300.919 186.057 300.922 185.383 300.925 184.689C300.933 182.446 300.927 180.203 300.92 177.96C300.923 176.347 300.927 174.733 300.931 173.12C300.94 168.748 300.937 164.377 300.93 160.005C300.925 155.431 300.93 150.857 300.933 146.283C300.937 138.606 300.932 130.93 300.922 123.253C300.911 114.37 300.915 105.487 300.926 96.6038C300.935 88.979 300.936 81.3543 300.931 73.7296C300.928 69.1745 300.928 64.6194 300.934 60.0643C300.94 55.7862 300.936 51.5083 300.924 47.2303C300.922 45.6573 300.923 44.0843 300.927 42.5113C300.932 40.3708 300.926 38.2307 300.916 36.0903C300.915 34.8905 300.914 33.6908 300.913 32.4546C300.95 29.5248 300.949 29.5248 298.662 27.6641C297.839 28.3653 297.017 29.0666 296.169 29.7891C290.343 34.745 284.487 39.6407 278.494 44.3945C272.576 49.1369 266.748 53.9897 260.899 58.8174C257.323 61.7691 253.742 64.7164 250.162 67.6641C248.745 68.8307 247.328 69.9974 245.912 71.1641C237.412 78.1641 228.912 85.1641 220.412 92.1641C219.36 93.0304 219.36 93.0304 218.286 93.9143C216.871 95.0802 215.455 96.2461 214.039 97.4119C209.769 100.928 205.5 104.446 201.234 107.967C199.117 109.712 196.995 111.452 194.873 113.191C192.021 115.532 189.198 117.902 186.388 120.293C176.687 128.489 168.9 134.621 155.595 134.027C146.1 132.852 140.023 127.817 133.08 121.656C129.739 118.694 126.259 115.951 122.724 113.227C117.245 108.975 111.951 104.547 106.708 100.011C101.442 95.4575 96.0687 91.0477 90.6616 86.6641C82.0471 79.634 73.4643 72.5656 64.8833 65.4946C60.6075 61.9716 56.3307 58.4498 52.0535 54.9285C48.4224 51.9388 44.7928 48.9474 41.1655 45.9531C30.0505 34.8685 30.0505 34.8685 17.6616 27.6641Z" fill="black"/>
</svg>
