<svg width="144" height="128" viewBox="0 0 144 128" fill="none" xmlns="http://www.w3.org/2000/svg">
<path d="M16.3481 0.130981C26.2652 0.130981 36.1823 0.130981 46.3999 0.130981C46.9509 1.77509 46.9509 1.77509 47.513 3.45241C67.3472 3.45241 87.1814 3.45241 107.617 3.45241C107.617 10.0288 107.617 16.6053 107.617 23.381C102.842 23.381 98.0669 23.381 93.1473 23.381C93.1473 26.3038 93.1473 29.2267 93.1473 32.2381C93.9507 32.124 94.7542 32.0098 95.582 31.8921C100.025 32.3832 101.519 34.4025 104.278 37.7738C104.278 38.8699 104.278 39.966 104.278 41.0953C106.114 41.0953 107.951 41.0953 109.843 41.0953C109.843 42.5567 109.843 44.0181 109.843 45.5238C103.231 45.5238 96.6199 45.5238 89.8082 45.5238C89.8082 44.0624 89.8082 42.601 89.8082 41.0953C93.6648 40.5472 93.6648 40.5472 97.5994 39.9881C93.3962 37.2008 90.2938 37.0678 85.356 37.7738C83.1197 39.2503 83.1197 39.2503 82.017 41.0953C83.6698 41.6433 83.6698 41.6433 85.356 42.2024C84.9887 43.2985 84.6214 44.3946 84.243 45.5238C79.8354 45.5238 75.4278 45.5238 70.8866 45.5238C70.8866 44.0624 70.8866 42.601 70.8866 41.0953C71.5524 41.0268 72.2181 40.9583 72.904 40.8877C76.3107 39.629 76.9375 37.5383 78.6779 34.4524C82.2706 32.0699 83.4461 32.0157 87.5821 32.2381C87.5821 29.3153 87.5821 26.3924 87.5821 23.381C74.3593 23.381 61.1365 23.381 47.513 23.381C46.962 25.0251 46.962 25.0251 46.3999 26.7024C44.9307 26.7024 43.4615 26.7024 41.9478 26.7024C41.9478 55.2003 41.9478 83.6981 41.9478 113.06C43.7843 113.425 45.6208 113.79 47.513 114.167C47.5429 115.989 47.5645 117.811 47.5825 119.633C47.5954 120.648 47.6084 121.663 47.6217 122.708C47.513 125.238 47.513 125.238 46.3999 126.345C44.1877 126.456 41.9715 126.49 39.7565 126.492C37.7357 126.494 37.7357 126.494 35.674 126.497C34.255 126.492 32.836 126.488 31.374 126.484C29.955 126.488 28.536 126.492 27.074 126.497C25.7268 126.495 24.3796 126.494 22.9915 126.492C21.7454 126.491 20.4993 126.49 19.2154 126.489C16.3481 126.345 16.3481 126.345 15.235 125.238C15.1548 123.371 15.1417 121.502 15.1655 119.633C15.1755 118.616 15.1856 117.598 15.1959 116.55C15.2088 115.763 15.2217 114.977 15.235 114.167C17.9898 113.619 17.9898 113.619 20.8002 113.06C20.8002 100.637 20.8002 88.2153 20.8002 75.4167C23.004 74.8687 23.004 74.8687 25.2523 74.3096C25.9869 75.0403 26.7215 75.771 27.4784 76.5238C29.3149 74.6971 31.1514 72.8703 33.0435 70.9881C31.6044 67.7947 30.0835 65.5939 27.4784 63.2381C26.7438 65.4303 26.0092 67.6224 25.2523 69.881C23.7831 69.5156 22.3139 69.1503 20.8002 68.7738C20.8002 54.8903 20.8002 41.0067 20.8002 26.7024C18.9637 26.3371 17.1272 25.9717 15.235 25.5953C15.235 24.8646 15.235 24.1338 15.235 23.381C10.4601 23.381 5.68523 23.381 0.765625 23.381C0.765625 16.8046 0.765625 10.2281 0.765625 3.45241C5.54053 3.45241 10.3154 3.45241 15.235 3.45241C15.6023 2.35634 15.9696 1.26027 16.3481 0.130981ZM20.8002 4.55955C20.8002 6.7517 20.8002 8.94384 20.8002 11.2024C23.3713 11.2024 25.9424 11.2024 28.5914 11.2024C28.5914 9.01027 28.5914 6.81812 28.5914 4.55955C26.0203 4.55955 23.4492 4.55955 20.8002 4.55955ZM34.1566 4.55955C33.7893 7.84777 33.422 11.136 33.0435 14.5238C29.0032 14.8892 24.9629 15.2546 20.8002 15.631C20.8002 17.4578 20.8002 19.2846 20.8002 21.1667C27.7789 21.1667 34.7576 21.1667 41.9478 21.1667C41.9478 15.6863 41.9478 10.206 41.9478 4.55955C39.3767 4.55955 36.8056 4.55955 34.1566 4.55955ZM5.21775 7.88098C5.21775 10.0731 5.21775 12.2653 5.21775 14.5238C7.46669 12.7062 9.69262 10.8602 11.8959 8.98812C11.8959 8.62277 11.8959 8.25741 11.8959 7.88098C9.69214 7.88098 7.48834 7.88098 5.21775 7.88098ZM50.8521 7.88098C51.8621 9.15973 52.8722 10.4385 53.9129 11.756C54.4811 12.4753 55.0492 13.1946 55.6346 13.9357C57.6572 16.1245 57.6572 16.1245 61.9824 15.631C63.9609 13.9591 63.9609 13.9591 65.5997 11.756C67.1148 9.83786 67.1148 9.83786 68.6606 7.88098C62.7838 7.88098 56.907 7.88098 50.8521 7.88098ZM82.017 7.88098C83.05 9.15973 84.083 10.4385 85.1474 11.756C85.7284 12.4753 86.3095 13.1946 86.9082 13.9357C88.6863 16.013 88.6863 16.013 92.0342 15.631C93.9024 13.9331 93.9024 13.9331 95.582 11.756C96.6151 10.4772 97.6481 9.19848 98.7124 7.88098C93.2029 7.88098 87.6934 7.88098 82.017 7.88098ZM74.2257 10.0953C73.0569 11.3578 71.9263 12.6556 70.8171 13.9703C69.7381 15.249 68.6592 16.5278 67.5475 17.8453C72.3224 17.8453 77.0974 17.8453 82.017 17.8453C80.938 16.5665 79.8591 15.2878 78.7474 13.9703C78.1405 13.251 77.5336 12.5317 76.9083 11.7906C76.3904 11.2311 75.8724 10.6717 75.3388 10.0953C74.9715 10.0953 74.6042 10.0953 74.2257 10.0953ZM102.052 12.3096C100.54 14.1324 99.0546 15.9775 97.5994 17.8453C99.4359 17.8453 101.272 17.8453 103.165 17.8453C103.165 16.0185 103.165 14.1917 103.165 12.3096C102.797 12.3096 102.43 12.3096 102.052 12.3096ZM14.122 13.4167C12.4692 15.6088 12.4692 15.6088 10.7829 17.8453C12.2521 17.8453 13.7213 17.8453 15.235 17.8453C14.8677 16.3838 14.5004 14.9224 14.122 13.4167ZM47.513 13.4167C47.513 14.8781 47.513 16.3396 47.513 17.8453C48.9822 17.4799 50.4514 17.1146 51.9651 16.7381C50.4959 15.6421 49.0267 14.546 47.513 13.4167ZM30.8175 26.7024C32.654 28.5292 34.4905 30.356 36.3826 32.2381C36.3826 30.4113 36.3826 28.5846 36.3826 26.7024C34.5461 26.7024 32.7096 26.7024 30.8175 26.7024ZM26.3654 31.131C26.3654 36.6113 26.3654 42.0917 26.3654 47.7381C30.4194 44.5812 30.4194 44.5812 34.1566 41.0953C34.5407 37.765 34.5407 37.765 32.4523 35.9964C31.3676 35.1293 31.3676 35.1293 30.261 34.2448C28.9754 33.2173 27.6899 32.1897 26.3654 31.131ZM33.4566 48.3263C32.7464 49.0456 32.0362 49.7649 31.3044 50.506C30.5914 51.2253 29.8783 51.9446 29.1436 52.6857C28.5941 53.2451 28.0446 53.8046 27.4784 54.381C28.5405 55.6534 29.6082 56.9211 30.6784 58.1868C31.2724 58.8932 31.8663 59.5997 32.4783 60.3276C34.0701 62.2506 34.0701 62.2506 36.3826 63.2381C36.3826 57.7578 36.3826 52.2774 36.3826 46.631C34.9901 46.5046 34.9901 46.5046 33.4566 48.3263ZM33.4566 78.2192C32.7464 78.9385 32.0362 79.6578 31.3044 80.3988C30.5914 81.1181 29.8783 81.8374 29.1436 82.5785C28.5941 83.138 28.0446 83.6974 27.4784 84.2738C28.5405 85.5462 29.6082 86.814 30.6784 88.0797C31.2724 88.7861 31.8663 89.4926 32.4783 90.2204C34.0701 92.1435 34.0701 92.1435 36.3826 93.131C36.3826 87.6506 36.3826 82.1703 36.3826 76.5238C34.9901 76.3975 34.9901 76.3975 33.4566 78.2192ZM26.3654 92.0238C26.3654 97.1388 26.3654 102.254 26.3654 107.524C28.9365 105.332 31.5076 103.14 34.1566 100.881C32.0471 95.9111 32.0471 95.9111 26.3654 92.0238ZM35.2696 107.524C33.7578 109.347 32.2727 111.192 30.8175 113.06C32.654 113.06 34.4905 113.06 36.3826 113.06C36.3826 111.233 36.3826 109.406 36.3826 107.524C36.0153 107.524 35.648 107.524 35.2696 107.524ZM20.8002 117.488C20.8002 118.95 20.8002 120.411 20.8002 121.917C27.7789 121.917 34.7576 121.917 41.9478 121.917C41.9478 120.455 41.9478 118.994 41.9478 117.488C34.9691 117.488 27.9904 117.488 20.8002 117.488Z" fill="#0B144A"/>
<path d="M122.086 41.0952C123.555 41.0952 125.025 41.0952 126.538 41.0952C126.538 45.8449 126.538 50.5945 126.538 55.4881C130.579 55.4881 134.619 55.4881 138.782 55.4881C138.782 53.6613 138.782 51.8345 138.782 49.9524C140.251 49.9524 141.72 49.9524 143.234 49.9524C143.234 75.162 143.234 100.372 143.234 126.345C119.359 126.345 95.4847 126.345 70.8867 126.345C70.8867 116.481 70.8867 106.616 70.8867 96.4524C72.3559 96.4524 73.8251 96.4524 75.3388 96.4524C75.3388 104.856 75.3388 113.259 75.3388 121.917C84.8887 121.917 94.4385 121.917 104.278 121.917C104.278 108.398 104.278 94.8802 104.278 80.9524C94.7279 80.9524 85.1781 80.9524 75.3388 80.9524C75.3388 84.2406 75.3388 87.5288 75.3388 90.9166C73.8696 90.9166 72.4004 90.9166 70.8867 90.9166C70.8867 81.7827 70.8867 72.6488 70.8867 63.2381C72.3559 63.2381 73.8251 63.2381 75.3388 63.2381C75.3388 67.6224 75.3388 72.0066 75.3388 76.5238C84.8887 76.5238 94.4385 76.5238 104.278 76.5238C104.278 68.1206 104.278 59.7174 104.278 51.0595C105.747 50.6941 107.216 50.3288 108.73 49.9524C109.281 52.6925 109.281 52.6925 109.843 55.4881C113.516 55.4881 117.189 55.4881 120.973 55.4881C120.96 54.6346 120.947 53.7812 120.934 52.9019C120.924 51.7915 120.914 50.6812 120.904 49.5372C120.891 48.4325 120.878 47.3279 120.864 46.1898C120.973 43.3095 120.973 43.3095 122.086 41.0952ZM109.843 61.0238C109.843 61.7545 109.843 62.4852 109.843 63.2381C113.516 63.2381 117.189 63.2381 120.973 63.2381C120.973 62.5074 120.973 61.7766 120.973 61.0238C117.3 61.0238 113.627 61.0238 109.843 61.0238ZM126.538 61.0238C126.538 61.7545 126.538 62.4852 126.538 63.2381C130.579 63.2381 134.619 63.2381 138.782 63.2381C138.782 62.5074 138.782 61.7766 138.782 61.0238C134.741 61.0238 130.701 61.0238 126.538 61.0238ZM109.843 68.7738C109.843 86.3109 109.843 103.848 109.843 121.917C119.393 121.917 128.942 121.917 138.782 121.917C138.782 104.379 138.782 86.8424 138.782 68.7738C129.232 68.7738 119.682 68.7738 109.843 68.7738Z" fill="#0B144B"/>
<path d="M128.764 103.095C130.968 103.643 130.968 103.643 133.217 104.202C132.849 105.664 132.482 107.125 132.103 108.631C130.634 108.266 129.165 107.9 127.651 107.524C128.019 106.062 128.386 104.601 128.764 103.095Z" fill="#0B164B"/>
<path d="M82.0173 103.095C84.2211 103.643 84.2211 103.643 86.4695 104.202C86.1022 105.664 85.7349 107.125 85.3564 108.631C83.8872 108.266 82.418 107.9 80.9043 107.524C81.2716 106.062 81.6389 104.601 82.0173 103.095Z" fill="#0B134B"/>
<path d="M128.764 77.631C130.968 78.179 130.968 78.179 133.217 78.7381C132.849 80.1996 132.482 81.661 132.103 83.1667C130.634 82.8013 129.165 82.436 127.651 82.0596C128.019 80.5981 128.386 79.1367 128.764 77.631Z" fill="#0A1344"/>
<path d="M83.1304 89.8096C84.2323 90.1749 85.3342 90.5403 86.4695 90.9167C86.4695 92.3781 86.4695 93.8396 86.4695 95.3453C84.633 94.9799 82.7965 94.6146 80.9043 94.2381C80.9043 93.1421 80.9043 92.046 80.9043 90.9167C81.6389 90.5514 82.3735 90.186 83.1304 89.8096Z" fill="#0A1349"/>
<path d="M115.408 103.095C116.877 103.095 118.347 103.095 119.86 103.095C120.228 104.191 120.595 105.287 120.973 106.417C118.77 107.513 118.77 107.513 116.521 108.631C116.154 106.804 115.787 104.977 115.408 103.095Z" fill="#0A134A"/>
<path d="M129.877 89.8096C130.979 90.1749 132.081 90.5403 133.217 90.9167C132.849 92.3781 132.482 93.8396 132.103 95.3453C130.634 94.9799 129.165 94.6146 127.651 94.2381C127.651 93.1421 127.651 92.046 127.651 90.9167C128.386 90.5514 129.121 90.186 129.877 89.8096Z" fill="#0B144C"/>
<path d="M116.521 89.8096C117.99 90.5403 119.46 91.271 120.973 92.0239C120.606 93.1199 120.239 94.216 119.86 95.3453C118.391 95.3453 116.922 95.3453 115.408 95.3453C115.776 93.5185 116.143 91.6917 116.521 89.8096Z" fill="#0A114A"/>
<path d="M115.408 77.631C116.877 77.631 118.347 77.631 119.86 77.631C120.228 78.7271 120.595 79.8231 120.973 80.9524C118.77 82.0485 118.77 82.0485 116.521 83.1667C116.154 81.3399 115.787 79.5131 115.408 77.631Z" fill="#0A134E"/>
<path d="M94.2607 103.095C95.7299 103.095 97.1991 103.095 98.7129 103.095C98.3456 104.922 97.9783 106.749 97.5998 108.631C96.4979 108.266 95.396 107.9 94.2607 107.524C94.2607 106.062 94.2607 104.601 94.2607 103.095Z" fill="#0A144B"/>
<path d="M95.3738 89.8096C96.4757 90.1749 97.5776 90.5403 98.7129 90.9167C98.7129 92.3781 98.7129 93.8396 98.7129 95.3453C97.2437 95.3453 95.7745 95.3453 94.2607 95.3453C94.628 93.5185 94.9953 91.6917 95.3738 89.8096Z" fill="#0A134C"/>
</svg>
