<svg width="27" height="28" viewBox="0 0 27 28" fill="none" xmlns="http://www.w3.org/2000/svg">
<path fill-rule="evenodd" clip-rule="evenodd" d="M13.2824 20.9871C17.2852 20.9871 20.5301 17.7422 20.5301 13.7394C20.5301 9.73661 17.2852 6.4917 13.2824 6.4917C9.27957 6.4917 6.03467 9.73661 6.03467 13.7394C6.03467 17.7422 9.27957 20.9871 13.2824 20.9871ZM13.2824 18.5712C15.9509 18.5712 18.1142 16.4079 18.1142 13.7394C18.1142 11.0709 15.9509 8.9076 13.2824 8.9076C10.6138 8.9076 8.45057 11.0709 8.45057 13.7394C8.45057 16.4079 10.6138 18.5712 13.2824 18.5712Z" fill="#010628"/>
<path d="M20.5305 5.28467C19.8633 5.28467 19.3225 5.82549 19.3225 6.49262C19.3225 7.15975 19.8633 7.70057 20.5305 7.70057C21.1976 7.70057 21.7384 7.15975 21.7384 6.49262C21.7384 5.82549 21.1976 5.28467 20.5305 5.28467Z" fill="#010628"/>
<path fill-rule="evenodd" clip-rule="evenodd" d="M0.784824 4.40947C-0.00512695 5.95984 -0.00512695 7.9894 -0.00512695 12.0485V15.4308C-0.00512695 19.4898 -0.00512695 21.5194 0.784824 23.0697C1.47969 24.4335 2.58844 25.5423 3.95219 26.2371C5.50256 27.0271 7.53211 27.0271 11.5912 27.0271H14.9735C19.0325 27.0271 21.0621 27.0271 22.6124 26.2371C23.9762 25.5423 25.085 24.4335 25.7798 23.0697C26.5698 21.5194 26.5698 19.4898 26.5698 15.4308V12.0485C26.5698 7.9894 26.5698 5.95984 25.7798 4.40947C25.085 3.04572 23.9762 1.93696 22.6124 1.2421C21.0621 0.452148 19.0325 0.452148 14.9735 0.452148H11.5912C7.53211 0.452148 5.50256 0.452148 3.95219 1.2421C2.58844 1.93696 1.47969 3.04572 0.784824 4.40947ZM14.9735 2.86805H11.5912C9.52179 2.86805 8.11502 2.86994 7.02766 2.95877C5.96848 3.04531 5.42683 3.20216 5.04899 3.39468C4.13982 3.85793 3.40065 4.59711 2.9374 5.50627C2.74488 5.88412 2.58803 6.42576 2.50149 7.48495C2.41266 8.57231 2.41077 9.97908 2.41077 12.0485V15.4308C2.41077 17.5002 2.41266 18.9069 2.50149 19.9943C2.58803 21.0535 2.74488 21.5952 2.9374 21.973C3.40065 22.8821 4.13982 23.6213 5.04899 24.0845C5.42683 24.2771 5.96848 24.434 7.02766 24.5205C8.11502 24.6093 9.52179 24.6112 11.5912 24.6112H14.9735C17.0429 24.6112 18.4496 24.6093 19.537 24.5205C20.5962 24.434 21.1379 24.2771 21.5157 24.0845C22.4248 23.6213 23.164 22.8821 23.6272 21.973C23.8198 21.5952 23.9767 21.0535 24.0632 19.9943C24.1519 18.9069 24.1539 17.5002 24.1539 15.4308V12.0485C24.1539 9.97908 24.1519 8.57231 24.0632 7.48495C23.9767 6.42576 23.8198 5.88412 23.6272 5.50627C23.164 4.59711 22.4248 3.85793 21.5157 3.39468C21.1379 3.20216 20.5962 3.04531 19.537 2.95877C18.4496 2.86994 17.0429 2.86805 14.9735 2.86805Z" fill="#010628"/>
</svg>
