<svg width="26" height="27" viewBox="0 0 26 27" fill="none" xmlns="http://www.w3.org/2000/svg">
<path d="M6.36025 8.96045H1.28564C1.06042 8.96045 0.87793 9.14302 0.87793 9.36816V25.6707C0.87793 25.896 1.06042 26.0785 1.28564 26.0785H6.36025C6.58547 26.0785 6.76796 25.896 6.76796 25.6707V9.36816C6.76796 9.14302 6.58547 8.96045 6.36025 8.96045Z" fill="#010628"/>
<path d="M3.82468 0.856934C1.97824 0.856934 0.476074 2.35747 0.476074 4.20188C0.476074 6.0471 1.97824 7.54821 3.82468 7.54821C5.66965 7.54821 7.1706 6.04702 7.1706 4.20188C7.17068 2.35747 5.66965 0.856934 3.82468 0.856934Z" fill="#010628"/>
<path d="M19.2677 8.55518C17.2295 8.55518 15.7229 9.43135 14.809 10.4269V9.36807C14.809 9.14293 14.6265 8.96036 14.4013 8.96036H9.5415C9.31628 8.96036 9.13379 9.14293 9.13379 9.36807V25.6707C9.13379 25.8959 9.31628 26.0784 9.5415 26.0784H14.605C14.8302 26.0784 15.0127 25.8959 15.0127 25.6707V17.6047C15.0127 14.8866 15.751 13.8277 17.6457 13.8277C19.7092 13.8277 19.8732 15.5252 19.8732 17.7445V25.6707C19.8732 25.896 20.0557 26.0785 20.2809 26.0785H25.3463C25.5715 26.0785 25.754 25.896 25.754 25.6707V16.7285C25.754 12.6868 24.9834 8.55518 19.2677 8.55518Z" fill="#010628"/>
</svg>
