<svg width="245" height="245" viewBox="0 0 245 245" fill="none" xmlns="http://www.w3.org/2000/svg">
<path d="M224.257 86.6865C224.881 87.1854 225.505 87.6842 226.148 88.1982C237.162 98.0467 242.378 113.444 244.257 127.687C244.399 131.494 244.384 135.298 244.371 139.108C244.371 140.25 244.371 141.392 244.371 142.569C244.371 146.335 244.363 150.1 244.355 153.866C244.353 156.481 244.352 159.095 244.351 161.71C244.348 167.883 244.339 174.056 244.329 180.228C244.317 187.949 244.312 195.669 244.306 203.39C244.296 217.155 244.276 230.921 244.257 244.687C224.457 244.687 204.657 244.687 184.257 244.687C184.22 238.04 184.183 231.394 184.144 224.546C184.114 220.317 184.083 216.088 184.048 211.858C183.994 205.157 183.943 198.455 183.911 191.753C183.885 186.345 183.844 180.938 183.794 175.53C183.778 173.475 183.766 171.419 183.76 169.364C184.376 151.304 184.376 151.304 177.82 135.062C172.466 130.099 167.887 130.255 160.75 130.374C154.516 130.932 150.898 132.744 146.882 137.499C142.362 146.366 142.123 156.023 142.052 165.786C142.042 166.646 142.032 167.506 142.022 168.391C141.991 171.199 141.966 174.007 141.941 176.815C141.92 178.776 141.899 180.736 141.878 182.696C141.823 187.83 141.773 192.964 141.725 198.098C141.666 204.271 141.6 210.445 141.535 216.618C141.437 225.974 141.348 235.33 141.257 244.687C122.117 244.687 102.977 244.687 83.2573 244.687C83.2573 189.577 83.2573 134.467 83.2573 77.6865C102.397 77.6865 121.537 77.6865 141.257 77.6865C141.752 82.1415 141.752 82.1415 142.257 86.6865C142.84 86.2392 143.423 85.7919 144.023 85.331C167.768 67.8208 201.106 67.8454 224.257 86.6865ZM145.269 101.081C141.341 106.168 138.386 111.868 135.411 117.55C133.75 120.627 131.992 123.651 130.257 126.687C129.927 114.807 129.597 102.927 129.257 90.6865C118.367 90.6865 107.477 90.6865 96.2573 90.6865C96.2573 137.547 96.2573 184.407 96.2573 232.687C107.147 232.687 118.037 232.687 129.257 232.687C129.267 230.149 129.276 227.612 129.286 224.998C129.32 216.572 129.375 208.147 129.441 199.721C129.481 194.617 129.513 189.514 129.528 184.41C129.544 179.476 129.578 174.542 129.626 169.608C129.64 167.734 129.648 165.861 129.649 163.988C129.661 151.089 129.746 137.847 138.492 127.401C146.579 119.546 155.039 117.281 166.187 117.319C173.887 117.506 179.197 119.723 185.57 123.812C194.784 133.668 196.36 147.091 196.463 160.03C196.473 160.821 196.482 161.613 196.493 162.428C196.524 165.014 196.549 167.6 196.574 170.187C196.594 171.991 196.615 173.796 196.637 175.6C196.692 180.328 196.741 185.056 196.79 189.784C196.849 195.469 196.915 201.153 196.98 206.838C197.078 215.454 197.167 224.07 197.257 232.687C208.807 232.687 220.357 232.687 232.257 232.687C232.303 220.707 232.339 208.727 232.361 196.747C232.371 191.183 232.385 185.619 232.408 180.055C232.43 174.673 232.442 169.291 232.447 163.91C232.451 161.869 232.458 159.828 232.469 157.787C232.577 136.71 232.596 115.648 217.882 98.999C217.016 98.2359 216.15 97.4728 215.257 96.6865C214.432 95.9479 214.432 95.9479 213.589 95.1943C194.064 79.0107 162.195 83.3313 145.269 101.081Z" fill="black"/>
<path d="M4.25732 77.6865C24.3873 77.6865 44.5173 77.6865 65.2573 77.6865C65.2573 132.797 65.2573 187.907 65.2573 244.687C45.1273 244.687 24.9973 244.687 4.25732 244.687C4.25732 189.577 4.25732 134.467 4.25732 77.6865ZM17.2573 90.6865C17.2573 137.547 17.2573 184.407 17.2573 232.687C28.8073 232.687 40.3573 232.687 52.2573 232.687C52.2573 185.827 52.2573 138.967 52.2573 90.6865C40.7073 90.6865 29.1573 90.6865 17.2573 90.6865Z" fill="black"/>
<path d="M49.2417 2.58847C58.2741 7.50727 64.3497 14.3744 68.1323 23.9361C70.9843 33.7388 69.8981 43.6654 65.2573 52.6861C60.0769 61.1815 52.9443 67.1037 43.2573 69.6861C30.6344 70.7588 20.9862 69.8799 10.9448 61.5611C4.55315 55.481 0.659329 48.2288 0.0190259 39.401C-0.227368 26.8608 1.84258 18.1215 10.7417 8.8541C20.8392 0.15207 36.7514 -2.53638 49.2417 2.58847ZM20.5073 17.3111C15.9852 22.0844 12.5869 27.9157 12.1206 34.5768C12.5381 41.0184 14.582 47.1444 19.2573 51.6861C24.6422 55.8744 29.8319 58.0245 36.6948 57.6236C43.0446 56.6933 47.9233 53.4489 52.1323 48.6861C56.4736 42.5573 57.074 37.0469 56.2573 29.6861C54.4939 23.5195 50.6484 19.0661 45.2573 15.6861C36.3162 11.6838 28.9293 12.3345 20.5073 17.3111Z" fill="black"/>
</svg>
