<svg width="373" height="158" viewBox="0 0 373 158" fill="none" xmlns="http://www.w3.org/2000/svg">
<path fill-rule="evenodd" clip-rule="evenodd" d="M207.639 0.127273C208.049 0.373829 209.115 2.92157 209.936 5.79805C210.838 8.59234 211.905 12.866 212.397 15.2493C212.889 17.5505 213.299 21.2489 213.299 23.4679C213.299 25.6047 212.725 29.5496 211.987 32.2617C211.33 34.9738 209.772 39.0009 208.541 41.2198C207.311 43.4389 203.783 48.1234 200.583 51.5752C197.384 54.9448 193.938 59.6293 192.79 61.8483C190.903 65.711 190.739 66.6973 190.903 77.0526C190.985 83.6274 190.821 87.8188 190.329 87.3257C190.001 86.8326 188.524 79.2716 187.129 70.4778C185.735 61.684 184.586 51.3286 184.586 47.4659C184.586 41.713 184.996 39.7405 186.719 35.96C188.196 32.9192 191.231 29.0564 196.317 24.0432C200.337 19.9339 204.357 15.1672 205.178 13.3591C206.08 11.3866 206.736 7.93486 206.818 4.89401C206.818 2.01753 207.229 -0.119282 207.639 0.127273ZM192.216 6.94864C192.626 7.11301 192.954 7.52394 192.872 7.85268C192.872 8.18142 190.739 11.7154 188.196 15.8246C185.57 19.9339 182.453 25.8512 181.222 28.9743C179.992 32.1795 178.515 37.3572 177.941 40.4802C177.449 43.7676 177.203 48.37 177.531 51.1643C177.859 53.8764 178.597 58.3144 179.336 61.0265C179.992 63.7386 182.043 70.0668 183.848 74.9979C185.653 79.9291 187.293 84.5314 187.539 85.1067C187.703 85.5998 187.457 86.0929 187.047 86.0929C186.555 86.0929 185.653 84.8602 184.914 83.463C184.176 81.9837 181.879 77.9566 179.828 74.587C177.695 71.2174 175.398 66.2863 174.577 63.7386C173.429 60.1224 173.019 55.6023 172.69 31.4398L175.316 26.0978C177.038 22.4816 180.074 18.4546 184.668 13.6878C188.442 9.82512 191.805 6.78427 192.216 6.94864ZM154.56 9.08545C155.052 9.24983 156.119 10.647 156.857 12.2085C157.677 13.77 159.893 18.7011 165.225 31.4398L165.307 46.6441C165.389 55.027 165.717 62.9167 166.045 64.3139C166.456 65.711 168.096 69.3272 169.737 72.4502C171.378 75.6554 175.152 80.6687 178.187 83.9561C181.304 87.1614 183.766 90.4488 183.766 91.1884C183.766 92.0103 183.273 92.9143 182.699 93.1609C182.207 93.4074 180.484 92.9965 179.007 92.339C177.613 91.5993 174.906 91.0241 173.101 91.0241C171.296 91.0241 168.424 91.5993 166.702 92.339C165.061 92.9965 162.764 94.3936 161.779 95.3799C160.713 96.3661 159.072 98.6673 158.17 100.475C157.267 102.283 156.283 105.571 156.037 107.872C155.791 110.255 156.119 113.378 156.775 115.269C157.349 117.077 158.826 119.624 159.975 120.939C161.123 122.254 163.83 124.227 166.127 125.46C169.491 127.186 171.542 127.596 177.203 127.679C182.617 127.843 184.34 128.172 184.75 129.158C185.16 129.898 185.242 131.048 184.996 131.706C184.668 132.692 183.684 132.856 180.238 132.445C177.941 132.199 173.347 131.459 170.229 130.802C166.127 129.98 163.174 128.747 160.057 126.61C157.349 124.72 154.888 122.172 153.904 120.2C152.673 117.816 152.181 115.433 152.263 111.57C152.263 107.954 152.919 104.913 154.15 102.119C155.134 99.8179 157.349 96.6126 158.99 94.8868C160.631 93.1609 163.338 91.0241 164.897 90.2022C166.456 89.3803 169.737 88.3941 172.116 87.9832C174.495 87.6545 176.382 87.0792 176.382 86.6682C176.382 86.3395 174.331 84.8602 171.788 83.3808C169.245 81.9837 165.881 79.6825 164.241 78.2854C162.682 76.8882 160.713 74.3405 159.893 72.5324C159.072 70.7243 158.006 65.7932 157.513 61.6018C157.103 57.4925 156.037 51.5752 155.298 48.4521C154.478 45.2469 153.986 39.5761 153.904 34.7272C153.904 30.207 154.396 24.4541 154.97 21.9885C155.791 18.208 155.791 16.893 154.724 13.77C153.986 11.7154 153.494 9.74294 153.494 9.4142C153.576 9.00327 153.986 8.8389 154.56 9.08545ZM229.707 35.1381C230.117 35.1381 230.527 35.6313 230.527 36.1244C230.527 36.6997 229.051 42.1239 227.246 48.0412C225.441 54.0407 223.226 60.369 222.406 62.0127C221.503 63.7386 219.37 66.5329 217.647 68.1766C215.925 69.8203 212.151 72.2858 209.197 73.683C206.244 74.9979 202.716 77.2991 201.322 78.8607C199.845 80.34 198.286 82.3946 197.794 83.3808C197.056 84.9424 197.138 85.3533 198.122 85.682C199.189 86.0108 199.271 87.6545 198.122 107.297L200.994 107.79C202.552 108.119 208.295 108.036 223.554 107.05V98.5851C223.554 92.0103 223.8 89.9556 224.785 89.3803C225.441 88.9694 226.508 88.5585 227 88.5585C227.82 88.5585 227.984 93.0787 227.41 130.062L225.441 130.309C223.554 130.555 223.554 130.555 223.554 110.338L216.991 110.091C213.381 109.927 207.721 110.009 198.533 110.748V130.473L194.02 130.062L194.267 107.05C194.513 88.4763 194.923 82.4768 196.153 75.8198C197.056 71.2996 198.615 65.711 199.763 63.492C200.83 61.1908 203.045 58.15 204.849 56.5885C206.572 55.027 211.413 52.0683 215.678 50.0137C221.421 47.2194 223.964 45.4935 225.359 43.3567C226.426 41.7951 227.328 40.2336 227.328 39.9049C227.41 39.5761 227.738 38.4256 228.148 37.275C228.559 36.1244 229.215 35.1381 229.707 35.1381ZM364.906 87.0792C366.055 87.3257 366.465 89.0516 367.203 97.5989C367.695 103.27 368.762 111.735 369.5 116.501C370.321 121.268 371.223 126.117 371.715 127.35C372.372 129.405 372.207 129.733 370.403 130.473C369.254 130.966 368.106 131.295 367.695 131.295C367.367 131.295 366.793 128.09 366.465 124.145C366.137 120.118 365.316 112.474 364.66 107.05C364.004 101.626 363.429 97.1058 363.429 96.9414C363.429 96.8592 363.183 96.777 362.773 96.777C362.445 96.6948 359.902 101.297 357.194 106.804C354.405 112.392 351.78 118.227 351.288 119.789C350.795 121.35 349.811 123.241 349.073 123.898C348.198 124.72 347.514 124.857 347.022 124.309C346.612 123.816 343.822 118.145 340.869 111.57C337.915 104.996 335.29 99.5713 334.962 99.4069C334.552 99.3248 333.485 103.352 332.501 108.447C331.434 113.543 330.204 120.611 329.63 124.145C328.891 128.336 328.153 130.637 327.333 130.884C326.676 131.13 325.774 131.048 325.446 130.719C325.035 130.309 326.102 124.145 327.661 116.912C329.301 109.68 331.024 100.64 331.516 96.777C332.009 92.9143 332.665 89.2982 332.993 88.7229C333.239 88.1476 334.06 87.7366 334.716 87.901C335.372 88.0654 337.997 93.4074 340.869 100.475C343.576 107.215 346.283 113.625 346.858 114.611C347.432 115.68 348.17 116.501 348.662 116.501C349.073 116.501 350.221 115.269 351.124 113.789C352.026 112.392 354.241 107.625 356.128 103.352C358.015 99.0782 360.394 93.5718 361.46 91.1884C362.937 87.9832 363.922 86.8326 364.906 87.0792ZM24.7755 87.9832C27.811 88.0654 30.6823 88.4763 31.1745 88.9694C31.6668 89.4625 31.9129 90.6131 31.6668 91.5993C31.4206 92.6678 30.6823 93.4896 30.1901 93.4896C29.6158 93.4896 28.0571 92.9965 26.6624 92.2568C25.3498 91.5993 22.8887 91.0241 21.3299 91.0241C19.7712 91.0241 16.7358 91.5993 14.6848 92.339C12.4698 93.0787 10.0907 94.7224 8.86013 96.2017C7.71159 97.6811 6.23491 100.064 5.41452 101.462C4.67618 102.941 3.8558 105.735 3.60968 107.625C3.28153 109.68 3.52764 112.557 4.10191 114.447C4.67618 116.255 5.98879 118.803 6.97325 120.2C7.95771 121.597 10.747 123.734 13.2082 125.131C17.146 127.35 18.4586 127.596 32.4051 127.761L32.8153 132.938L28.1391 132.445C25.5139 132.199 21.0838 131.459 18.2945 130.802C15.4232 130.144 11.7315 128.994 10.0907 128.09C8.3679 127.268 5.74268 125.213 4.34803 123.569C2.87134 121.926 1.31261 119.707 0.820382 118.556C0.410191 117.405 0 114.2 0 111.324C0 107.954 0.574268 104.996 1.7228 102.53C2.62522 100.475 4.26599 97.5989 5.41452 96.1195C6.48102 94.7224 8.86013 92.5856 10.665 91.435C12.4698 90.2844 15.1771 89.0516 16.6538 88.5585C18.0484 88.1476 21.7401 87.901 24.7755 87.9832ZM262.522 88.1476C265.886 88.3119 269.003 88.8051 269.332 89.1338C269.742 89.5447 269.824 90.6131 269.578 91.5993C269.332 92.6678 268.511 93.4896 267.855 93.4896C267.199 93.4896 265.394 92.9143 263.917 92.1746C261.948 91.1062 260.143 90.9419 256.78 91.3528C254.236 91.6815 251.119 92.6678 249.642 93.7362C248.248 94.7224 246.115 97.0236 244.966 98.8316C243.9 100.64 242.505 103.763 241.931 105.817C241.356 107.872 241.192 110.831 241.439 112.392C241.767 113.954 242.997 116.912 244.31 118.967C245.869 121.433 248.084 123.487 251.119 125.131C255.057 127.268 256.369 127.596 270.316 127.761V130.144C270.316 132.528 270.316 132.528 265.804 132.281C263.343 132.117 258.995 131.459 256.123 130.802C253.334 130.144 249.642 128.911 247.92 128.09C246.279 127.186 243.736 125.295 242.259 123.734C240.864 122.254 239.223 120.035 238.813 118.72C238.321 117.488 237.911 114.2 237.911 111.324C237.911 107.132 238.403 105.242 240.536 100.968C242.095 97.9276 244.638 94.4758 246.525 92.9143C248.33 91.435 251.283 89.6269 253.088 88.9694C255.303 88.1476 258.338 87.901 262.522 88.1476ZM61.1185 88.5585C64.2359 88.5585 68.1738 88.8872 69.7325 89.3803C71.2912 89.7913 73.6703 91.1884 74.9829 92.4212C76.2135 93.654 77.8543 95.7908 78.5926 97.1879C79.495 98.8316 79.9873 101.626 79.9052 105.817C79.9052 110.666 79.495 112.967 77.8543 116.501C76.7057 118.967 74.4907 122.419 72.932 124.145C71.3733 125.871 68.666 128.007 66.8612 128.911C64.482 129.98 61.7748 130.473 57.1806 130.473C52.1763 130.473 50.0433 130.062 46.9259 128.5C44.7929 127.514 42.2497 125.542 41.1832 124.227C40.1167 122.912 38.8861 120.364 38.3939 118.556C37.9837 116.748 37.7376 113.214 37.9837 110.748C38.1478 108.283 39.0502 104.585 39.9526 102.53C40.855 100.475 42.824 97.3523 44.3827 95.6264C45.9414 93.8183 48.9768 91.5172 51.2739 90.4488C54.3093 89.0516 56.8525 88.5585 61.1185 88.5585ZM47.5822 96.3661C46.5157 97.2701 44.8749 99.8179 43.8084 102.119C42.4958 104.913 41.8395 107.708 41.8395 110.913C41.8395 113.543 42.3317 116.912 42.906 118.31C43.4803 119.789 45.2851 122.008 46.8438 123.158C48.4026 124.309 50.9457 125.706 52.5045 126.281C54.0632 126.775 57.0986 127.186 59.2316 127.186C61.4466 127.186 64.4 126.61 65.7947 125.871C67.2713 125.131 69.1582 123.898 70.0606 123.158C70.881 122.419 72.2757 120.446 73.0961 118.72C73.9164 117.077 74.9829 113.789 75.4752 111.57C76.0494 108.776 76.0494 106.064 75.3931 103.105C74.9829 100.804 73.9164 97.9276 73.0961 96.777C72.2757 95.6264 70.3888 94.0649 68.8301 93.3252C67.2713 92.5856 64.1539 91.7637 61.9389 91.5172C58.7394 91.1062 56.9345 91.435 53.653 92.8321C51.2739 93.9005 48.5666 95.4621 47.5822 96.3661ZM101.153 88.6407C109.849 88.6407 117.479 88.9694 118.135 89.3803C118.791 89.7091 119.12 90.4488 118.709 90.9419C118.381 91.5172 115.264 91.8459 110.752 91.8459C105.747 91.8459 103.204 92.1747 102.794 92.8321C102.466 93.4074 102.056 101.626 101.974 111.159C101.809 120.693 101.563 128.911 101.317 129.405C101.071 129.98 100.087 130.473 97.2153 130.473L97.8716 91.435L92.211 91.9281C89.0935 92.2568 86.0581 92.2568 85.4838 91.9281C84.9096 91.6815 84.6635 90.7775 84.9916 89.9557C85.4018 88.7229 86.8785 88.5585 101.153 88.6407ZM135.609 88.8051C142.418 88.8872 147.259 89.2982 147.423 89.7913C147.505 90.2844 147.341 91.1062 147.013 91.6815C146.52 92.5034 144.962 92.5034 139.055 91.6815C133.312 90.9419 131.179 90.9419 129.374 91.6815C127.159 92.6678 127.159 92.7499 127.569 106.228L134.707 106.393C141.598 106.639 141.926 106.721 141.68 108.447C141.516 110.255 141.188 110.255 134.543 110.091C129.456 109.927 127.405 110.091 126.995 110.913C126.667 111.488 126.339 114.693 126.339 117.899C126.339 121.186 126.667 124.802 127.159 125.953C127.816 127.514 128.472 127.925 129.784 127.679C130.851 127.432 135.117 127.103 146.848 126.364V130.473H122.237L122.073 110.502C121.909 94.8046 122.155 90.3666 122.975 89.6269C123.714 88.9694 128.062 88.7229 135.609 88.8051ZM299.85 88.5585C305.018 88.5585 307.233 88.9694 310.105 90.3666C312.976 91.8459 314.288 93.243 315.847 96.3661C317.488 99.5713 317.898 101.708 317.898 106.228C317.898 110.666 317.406 113.05 315.765 116.501C314.617 118.967 312.402 122.419 310.843 124.145C309.284 125.871 306.413 128.09 304.362 128.994C301.737 130.226 299.029 130.719 294.927 130.637C290.497 130.637 288.282 130.144 285.083 128.583C282.786 127.432 280.161 125.624 279.176 124.556C278.192 123.569 276.961 120.775 276.387 118.556C275.895 116.255 275.566 112.557 275.813 110.338C276.059 108.036 276.961 104.585 277.863 102.53C278.766 100.475 280.735 97.4345 282.294 95.7086C283.852 93.9827 286.888 91.5993 289.185 90.5309C292.466 88.9694 294.599 88.5585 299.85 88.5585ZM285.657 96.2017C284.591 97.1879 282.868 99.8179 281.719 102.119C279.996 105.571 279.668 107.132 279.914 112.146C280.079 116.501 280.571 118.638 281.883 120.364C282.786 121.597 285.247 123.569 287.216 124.638C289.431 125.871 292.712 126.775 295.748 127.021C299.686 127.35 301.408 127.021 304.116 125.624C306.085 124.72 308.464 122.665 309.53 121.186C310.597 119.789 312.155 116.173 312.976 113.214C314.288 108.694 314.371 107.297 313.55 103.763C312.976 101.462 311.827 98.4207 310.925 96.9414C310.022 95.5442 307.807 93.5718 306.003 92.6678C304.198 91.7637 301.326 91.0241 299.604 91.0241C297.963 91.1062 294.517 91.8459 292.056 92.7499C289.595 93.654 286.724 95.2155 285.657 96.2017Z" fill="white"/>
<path d="M43.2854 152.142C43.3501 152.142 43.4068 152.168 43.4553 152.221L43.9228 152.724C43.5666 153.137 43.1336 153.459 42.6237 153.69C42.1179 153.92 41.5048 154.036 40.7844 154.036C40.1612 154.036 39.5947 153.928 39.0848 153.714C38.5749 153.495 38.1398 153.192 37.7797 152.803C37.4195 152.411 37.1403 151.941 36.942 151.395C36.7437 150.849 36.6445 150.248 36.6445 149.592C36.6445 148.937 36.7477 148.336 36.9541 147.789C37.1605 147.243 37.4499 146.774 37.8222 146.381C38.1985 145.988 38.6477 145.685 39.1698 145.471C39.6918 145.252 40.2685 145.143 40.8998 145.143C41.5189 145.143 42.0653 145.242 42.5387 145.44C43.0122 145.638 43.429 145.908 43.7892 146.247L43.4007 146.788C43.3764 146.828 43.3441 146.863 43.3036 146.891C43.2672 146.915 43.2166 146.927 43.1518 146.927C43.079 146.927 42.99 146.889 42.8847 146.812C42.7795 146.731 42.6419 146.642 42.472 146.545C42.302 146.448 42.0895 146.361 41.8346 146.284C41.5796 146.203 41.266 146.163 40.8937 146.163C40.4445 146.163 40.0338 146.241 39.6614 146.399C39.2891 146.553 38.9674 146.778 38.6963 147.073C38.4292 147.368 38.2208 147.729 38.071 148.154C37.9213 148.578 37.8464 149.058 37.8464 149.592C37.8464 150.134 37.9233 150.618 38.0771 151.043C38.2349 151.468 38.4474 151.828 38.7145 152.123C38.9856 152.415 39.3033 152.637 39.6675 152.791C40.0358 152.945 40.4324 153.022 40.8573 153.022C41.1163 153.022 41.349 153.008 41.5554 152.979C41.7658 152.947 41.958 152.898 42.132 152.834C42.3101 152.769 42.474 152.688 42.6237 152.591C42.7775 152.49 42.9293 152.37 43.079 152.233C43.1478 152.172 43.2166 152.142 43.2854 152.142ZM53.1592 149.592C53.1592 150.244 53.056 150.843 52.8496 151.389C52.6432 151.931 52.3518 152.399 51.9755 152.791C51.5991 153.184 51.1459 153.489 50.6157 153.708C50.0897 153.922 49.5069 154.03 48.8675 154.03C48.2281 154.03 47.6454 153.922 47.1193 153.708C46.5932 153.489 46.142 153.184 45.7656 152.791C45.3893 152.399 45.0979 151.931 44.8915 151.389C44.6851 150.843 44.5819 150.244 44.5819 149.592C44.5819 148.941 44.6851 148.344 44.8915 147.801C45.0979 147.255 45.3893 146.786 45.7656 146.393C46.142 145.997 46.5932 145.689 47.1193 145.471C47.6454 145.252 48.2281 145.143 48.8675 145.143C49.5069 145.143 50.0897 145.252 50.6157 145.471C51.1459 145.689 51.5991 145.997 51.9755 146.393C52.3518 146.786 52.6432 147.255 52.8496 147.801C53.056 148.344 53.1592 148.941 53.1592 149.592ZM51.9512 149.592C51.9512 149.058 51.8784 148.578 51.7327 148.154C51.587 147.729 51.3806 147.37 51.1135 147.079C50.8464 146.784 50.5227 146.557 50.1423 146.399C49.7619 146.241 49.337 146.163 48.8675 146.163C48.4021 146.163 47.9792 146.241 47.5988 146.399C47.2184 146.557 46.8927 146.784 46.6215 147.079C46.3544 147.37 46.1481 147.729 46.0024 148.154C45.8567 148.578 45.7838 149.058 45.7838 149.592C45.7838 150.126 45.8567 150.606 46.0024 151.031C46.1481 151.452 46.3544 151.81 46.6215 152.105C46.8927 152.397 47.2184 152.621 47.5988 152.779C47.9792 152.933 48.4021 153.01 48.8675 153.01C49.337 153.01 49.7619 152.933 50.1423 152.779C50.5227 152.621 50.8464 152.397 51.1135 152.105C51.3806 151.81 51.587 151.452 51.7327 151.031C51.8784 150.606 51.9512 150.126 51.9512 149.592ZM61.8916 145.24V153.938H61.3028C61.2097 153.938 61.1308 153.922 61.066 153.89C61.0053 153.858 60.9446 153.803 60.8839 153.726L55.8517 147.17C55.8598 147.271 55.8659 147.37 55.8699 147.468C55.874 147.565 55.876 147.656 55.876 147.741V153.938H54.844V145.24H55.4511C55.5037 145.24 55.5482 145.244 55.5846 145.252C55.621 145.256 55.6534 145.266 55.6817 145.282C55.7101 145.294 55.7384 145.315 55.7667 145.343C55.795 145.367 55.8254 145.4 55.8578 145.44L60.89 151.99C60.8819 151.885 60.8738 151.784 60.8657 151.686C60.8617 151.585 60.8596 151.49 60.8596 151.401V145.24H61.8916ZM71.1811 149.756V153.095C70.7441 153.41 70.2767 153.647 69.7789 153.805C69.2852 153.959 68.7429 154.036 68.1521 154.036C67.452 154.036 66.8207 153.928 66.2582 153.714C65.6957 153.495 65.2141 153.192 64.8134 152.803C64.4169 152.411 64.1113 151.941 63.8968 151.395C63.6824 150.849 63.5751 150.248 63.5751 149.592C63.5751 148.929 63.6783 148.324 63.8847 147.777C64.0951 147.231 64.3926 146.763 64.777 146.375C65.1615 145.982 65.6289 145.679 66.1793 145.464C66.7296 145.25 67.3447 145.143 68.0246 145.143C68.3686 145.143 68.6883 145.169 68.9837 145.222C69.2791 145.27 69.5523 145.343 69.8032 145.44C70.0541 145.533 70.2868 145.649 70.5013 145.786C70.7157 145.92 70.9161 146.071 71.1022 146.241L70.7683 146.776C70.7157 146.857 70.6469 146.909 70.562 146.933C70.481 146.954 70.39 146.933 70.2888 146.873C70.1917 146.816 70.0804 146.747 69.9549 146.666C69.8295 146.585 69.6757 146.509 69.4936 146.436C69.3155 146.359 69.1031 146.294 68.8562 146.241C68.6134 146.189 68.3241 146.163 67.9882 146.163C67.4985 146.163 67.0554 146.243 66.6588 146.405C66.2622 146.563 65.9243 146.792 65.6451 147.091C65.3658 147.387 65.1514 147.747 65.0016 148.172C64.8519 148.593 64.777 149.066 64.777 149.592C64.777 150.139 64.8539 150.628 65.0077 151.061C65.1655 151.49 65.3881 151.856 65.6754 152.16C65.9668 152.459 66.3189 152.688 66.7316 152.846C67.1444 153.004 67.6078 153.083 68.1217 153.083C68.5264 153.083 68.8846 153.038 69.1962 152.949C69.5118 152.856 69.8194 152.728 70.1188 152.567V150.654H68.7652C68.6883 150.654 68.6256 150.632 68.577 150.588C68.5325 150.543 68.5102 150.489 68.5102 150.424V149.756H71.1811ZM81.0206 149.592C81.0206 150.244 80.9174 150.843 80.711 151.389C80.5046 151.931 80.2132 152.399 79.8369 152.791C79.4605 153.184 79.0073 153.489 78.4772 153.708C77.9511 153.922 77.3683 154.03 76.7289 154.03C76.0895 154.03 75.5068 153.922 74.9807 153.708C74.4546 153.489 74.0034 153.184 73.627 152.791C73.2507 152.399 72.9593 151.931 72.7529 151.389C72.5465 150.843 72.4434 150.244 72.4434 149.592C72.4434 148.941 72.5465 148.344 72.7529 147.801C72.9593 147.255 73.2507 146.786 73.627 146.393C74.0034 145.997 74.4546 145.689 74.9807 145.471C75.5068 145.252 76.0895 145.143 76.7289 145.143C77.3683 145.143 77.9511 145.252 78.4772 145.471C79.0073 145.689 79.4605 145.997 79.8369 146.393C80.2132 146.786 80.5046 147.255 80.711 147.801C80.9174 148.344 81.0206 148.941 81.0206 149.592ZM79.8126 149.592C79.8126 149.058 79.7398 148.578 79.5941 148.154C79.4484 147.729 79.242 147.37 78.9749 147.079C78.7078 146.784 78.3841 146.557 78.0037 146.399C77.6233 146.241 77.1984 146.163 76.7289 146.163C76.2635 146.163 75.8407 146.241 75.4603 146.399C75.0799 146.557 74.7541 146.784 74.4829 147.079C74.2159 147.37 74.0095 147.729 73.8638 148.154C73.7181 148.578 73.6453 149.058 73.6453 149.592C73.6453 150.126 73.7181 150.606 73.8638 151.031C74.0095 151.452 74.2159 151.81 74.4829 152.105C74.7541 152.397 75.0799 152.621 75.4603 152.779C75.8407 152.933 76.2635 153.01 76.7289 153.01C77.1984 153.01 77.6233 152.933 78.0037 152.779C78.3841 152.621 78.7078 152.397 78.9749 152.105C79.242 151.81 79.4484 151.452 79.5941 151.031C79.7398 150.606 79.8126 150.126 79.8126 149.592ZM87.6406 152.949V153.938H82.7055V145.24H83.877V152.949H87.6406ZM93.5611 150.709L92.1953 147.17C92.1548 147.065 92.1124 146.944 92.0678 146.806C92.0233 146.664 91.9808 146.515 91.9404 146.357C91.8554 146.685 91.7684 146.958 91.6793 147.176L90.3135 150.709H93.5611ZM96.0135 153.938H95.103C94.9977 153.938 94.9128 153.912 94.848 153.86C94.7833 153.807 94.7347 153.74 94.7023 153.659L93.8889 151.559H89.9858L89.1723 153.659C89.1481 153.732 89.1015 153.797 89.0327 153.853C88.9639 153.91 88.8789 153.938 88.7778 153.938H87.8672L91.3455 145.24H92.5352L96.0135 153.938ZM98.3354 153.938H97.1578V145.24H98.3354V153.938ZM105.01 146.6C104.974 146.66 104.933 146.707 104.889 146.739C104.848 146.768 104.797 146.782 104.737 146.782C104.668 146.782 104.587 146.747 104.494 146.678C104.401 146.61 104.284 146.535 104.142 146.454C104.004 146.369 103.836 146.292 103.638 146.223C103.444 146.154 103.207 146.12 102.928 146.12C102.665 146.12 102.432 146.156 102.23 146.229C102.031 146.298 101.864 146.393 101.726 146.515C101.592 146.636 101.491 146.78 101.422 146.946C101.354 147.107 101.319 147.283 101.319 147.474C101.319 147.716 101.378 147.919 101.495 148.081C101.617 148.239 101.775 148.374 101.969 148.487C102.167 148.601 102.39 148.7 102.636 148.785C102.887 148.866 103.142 148.951 103.401 149.04C103.664 149.129 103.919 149.23 104.166 149.343C104.417 149.453 104.64 149.592 104.834 149.762C105.032 149.932 105.19 150.141 105.307 150.387C105.429 150.634 105.489 150.938 105.489 151.298C105.489 151.678 105.425 152.036 105.295 152.372C105.166 152.704 104.976 152.994 104.725 153.24C104.478 153.487 104.172 153.682 103.808 153.823C103.448 153.965 103.037 154.036 102.576 154.036C102.009 154.036 101.495 153.934 101.034 153.732C100.573 153.526 100.178 153.248 99.8503 152.9L100.19 152.342C100.223 152.297 100.261 152.261 100.306 152.233C100.354 152.2 100.407 152.184 100.463 152.184C100.516 152.184 100.575 152.206 100.639 152.251C100.708 152.291 100.785 152.344 100.87 152.409C100.955 152.474 101.052 152.544 101.161 152.621C101.271 152.698 101.394 152.769 101.532 152.834C101.673 152.898 101.833 152.953 102.011 152.998C102.189 153.038 102.39 153.058 102.612 153.058C102.891 153.058 103.14 153.02 103.359 152.943C103.577 152.866 103.762 152.759 103.911 152.621C104.065 152.48 104.182 152.312 104.263 152.117C104.344 151.923 104.385 151.707 104.385 151.468C104.385 151.205 104.324 150.99 104.203 150.824C104.085 150.654 103.929 150.513 103.735 150.4C103.541 150.286 103.318 150.191 103.067 150.114C102.817 150.033 102.562 149.952 102.303 149.871C102.044 149.786 101.789 149.689 101.538 149.58C101.287 149.471 101.064 149.329 100.87 149.155C100.676 148.981 100.518 148.765 100.397 148.506C100.279 148.243 100.221 147.919 100.221 147.534C100.221 147.227 100.279 146.929 100.397 146.642C100.518 146.355 100.692 146.1 100.919 145.877C101.149 145.655 101.431 145.477 101.762 145.343C102.098 145.209 102.483 145.143 102.916 145.143C103.401 145.143 103.842 145.22 104.239 145.373C104.64 145.527 104.992 145.75 105.295 146.041L105.01 146.6ZM112.518 152.979L112.512 153.938H107.152V145.24H112.512V146.199H108.33V149.088H111.717V150.011H108.33V152.979H112.518ZM124.805 149.592C124.805 150.244 124.701 150.837 124.495 151.371C124.289 151.905 123.997 152.362 123.621 152.743C123.245 153.123 122.791 153.418 122.261 153.629C121.735 153.835 121.152 153.938 120.513 153.938H117.265V145.24H120.513C121.152 145.24 121.735 145.345 122.261 145.555C122.791 145.762 123.245 146.057 123.621 146.442C123.997 146.822 124.289 147.279 124.495 147.814C124.701 148.348 124.805 148.941 124.805 149.592ZM123.597 149.592C123.597 149.058 123.524 148.58 123.378 148.16C123.232 147.739 123.026 147.383 122.759 147.091C122.492 146.8 122.168 146.577 121.788 146.424C121.407 146.27 120.982 146.193 120.513 146.193H118.443V152.985H120.513C120.982 152.985 121.407 152.909 121.788 152.755C122.168 152.601 122.492 152.38 122.759 152.093C123.026 151.802 123.232 151.446 123.378 151.025C123.524 150.604 123.597 150.126 123.597 149.592ZM131.867 152.979L131.861 153.938H126.501V145.24H131.861V146.199H127.679V149.088H131.066V150.011H127.679V152.979H131.867ZM142.129 146.229H139.312V153.938H138.141V146.229H135.318V145.24H142.129V146.229ZM148.786 152.979L148.78 153.938H143.42V145.24H148.78V146.199H144.597V149.088H147.984V150.011H144.597V152.979H148.786ZM156.343 152.142C156.408 152.142 156.465 152.168 156.513 152.221L156.981 152.724C156.625 153.137 156.192 153.459 155.682 153.69C155.176 153.92 154.563 154.036 153.842 154.036C153.219 154.036 152.653 153.928 152.143 153.714C151.633 153.495 151.198 153.192 150.838 152.803C150.478 152.411 150.198 151.941 150 151.395C149.802 150.849 149.703 150.248 149.703 149.592C149.703 148.937 149.806 148.336 150.012 147.789C150.219 147.243 150.508 146.774 150.88 146.381C151.257 145.988 151.706 145.685 152.228 145.471C152.75 145.252 153.327 145.143 153.958 145.143C154.577 145.143 155.123 145.242 155.597 145.44C156.07 145.638 156.487 145.908 156.847 146.247L156.459 146.788C156.434 146.828 156.402 146.863 156.362 146.891C156.325 146.915 156.275 146.927 156.21 146.927C156.137 146.927 156.048 146.889 155.943 146.812C155.838 146.731 155.7 146.642 155.53 146.545C155.36 146.448 155.148 146.361 154.893 146.284C154.638 146.203 154.324 146.163 153.952 146.163C153.503 146.163 153.092 146.241 152.719 146.399C152.347 146.553 152.025 146.778 151.754 147.073C151.487 147.368 151.279 147.729 151.129 148.154C150.979 148.578 150.905 149.058 150.905 149.592C150.905 150.134 150.981 150.618 151.135 151.043C151.293 151.468 151.505 151.828 151.773 152.123C152.044 152.415 152.361 152.637 152.726 152.791C153.094 152.945 153.49 153.022 153.915 153.022C154.174 153.022 154.407 153.008 154.613 152.979C154.824 152.947 155.016 152.898 155.19 152.834C155.368 152.769 155.532 152.688 155.682 152.591C155.836 152.49 155.987 152.37 156.137 152.233C156.206 152.172 156.275 152.142 156.343 152.142ZM165.394 145.24V153.938H164.216V149.981H159.524V153.938H158.346V145.24H159.524V149.119H164.216V145.24H165.394ZM174.665 145.24V153.938H174.076C173.983 153.938 173.904 153.922 173.84 153.89C173.779 153.858 173.718 153.803 173.657 153.726L168.625 147.17C168.633 147.271 168.639 147.37 168.643 147.468C168.647 147.565 168.649 147.656 168.649 147.741V153.938H167.618V145.24H168.225C168.277 145.24 168.322 145.244 168.358 145.252C168.395 145.256 168.427 145.266 168.455 145.282C168.484 145.294 168.512 145.315 168.54 145.343C168.569 145.367 168.599 145.4 168.631 145.44L173.664 151.99C173.655 151.885 173.647 151.784 173.639 151.686C173.635 151.585 173.633 151.49 173.633 151.401V145.24H174.665ZM184.926 149.592C184.926 150.244 184.823 150.843 184.616 151.389C184.41 151.931 184.119 152.399 183.742 152.791C183.366 153.184 182.913 153.489 182.382 153.708C181.856 153.922 181.274 154.03 180.634 154.03C179.995 154.03 179.412 153.922 178.886 153.708C178.36 153.489 177.909 153.184 177.532 152.791C177.156 152.399 176.865 151.931 176.658 151.389C176.452 150.843 176.349 150.244 176.349 149.592C176.349 148.941 176.452 148.344 176.658 147.801C176.865 147.255 177.156 146.786 177.532 146.393C177.909 145.997 178.36 145.689 178.886 145.471C179.412 145.252 179.995 145.143 180.634 145.143C181.274 145.143 181.856 145.252 182.382 145.471C182.913 145.689 183.366 145.997 183.742 146.393C184.119 146.786 184.41 147.255 184.616 147.801C184.823 148.344 184.926 148.941 184.926 149.592ZM183.718 149.592C183.718 149.058 183.645 148.578 183.499 148.154C183.354 147.729 183.147 147.37 182.88 147.079C182.613 146.784 182.289 146.557 181.909 146.399C181.529 146.241 181.104 146.163 180.634 146.163C180.169 146.163 179.746 146.241 179.366 146.399C178.985 146.557 178.659 146.784 178.388 147.079C178.121 147.37 177.915 147.729 177.769 148.154C177.623 148.578 177.551 149.058 177.551 149.592C177.551 150.126 177.623 150.606 177.769 151.031C177.915 151.452 178.121 151.81 178.388 152.105C178.659 152.397 178.985 152.621 179.366 152.779C179.746 152.933 180.169 153.01 180.634 153.01C181.104 153.01 181.529 152.933 181.909 152.779C182.289 152.621 182.613 152.397 182.88 152.105C183.147 151.81 183.354 151.452 183.499 151.031C183.645 150.606 183.718 150.126 183.718 149.592ZM191.546 152.949V153.938H186.611V145.24H187.782V152.949H191.546ZM200.481 149.592C200.481 150.244 200.378 150.843 200.171 151.389C199.965 151.931 199.673 152.399 199.297 152.791C198.921 153.184 198.468 153.489 197.937 153.708C197.411 153.922 196.829 154.03 196.189 154.03C195.55 154.03 194.967 153.922 194.441 153.708C193.915 153.489 193.464 153.184 193.087 152.791C192.711 152.399 192.42 151.931 192.213 151.389C192.007 150.843 191.904 150.244 191.904 149.592C191.904 148.941 192.007 148.344 192.213 147.801C192.42 147.255 192.711 146.786 193.087 146.393C193.464 145.997 193.915 145.689 194.441 145.471C194.967 145.252 195.55 145.143 196.189 145.143C196.829 145.143 197.411 145.252 197.937 145.471C198.468 145.689 198.921 145.997 199.297 146.393C199.673 146.786 199.965 147.255 200.171 147.801C200.378 148.344 200.481 148.941 200.481 149.592ZM199.273 149.592C199.273 149.058 199.2 148.578 199.054 148.154C198.909 147.729 198.702 147.37 198.435 147.079C198.168 146.784 197.844 146.557 197.464 146.399C197.084 146.241 196.659 146.163 196.189 146.163C195.724 146.163 195.301 146.241 194.92 146.399C194.54 146.557 194.214 146.784 193.943 147.079C193.676 147.37 193.47 147.729 193.324 148.154C193.178 148.578 193.106 149.058 193.106 149.592C193.106 150.126 193.178 150.606 193.324 151.031C193.47 151.452 193.676 151.81 193.943 152.105C194.214 152.397 194.54 152.621 194.92 152.779C195.301 152.933 195.724 153.01 196.189 153.01C196.659 153.01 197.084 152.933 197.464 152.779C197.844 152.621 198.168 152.397 198.435 152.105C198.702 151.81 198.909 151.452 199.054 151.031C199.2 150.606 199.273 150.126 199.273 149.592ZM209.231 149.756V153.095C208.794 153.41 208.327 153.647 207.829 153.805C207.336 153.959 206.793 154.036 206.202 154.036C205.502 154.036 204.871 153.928 204.308 153.714C203.746 153.495 203.264 153.192 202.864 152.803C202.467 152.411 202.162 151.941 201.947 151.395C201.733 150.849 201.625 150.248 201.625 149.592C201.625 148.929 201.729 148.324 201.935 147.777C202.145 147.231 202.443 146.763 202.827 146.375C203.212 145.982 203.679 145.679 204.23 145.464C204.78 145.25 205.395 145.143 206.075 145.143C206.419 145.143 206.739 145.169 207.034 145.222C207.329 145.27 207.603 145.343 207.854 145.44C208.104 145.533 208.337 145.649 208.552 145.786C208.766 145.92 208.966 146.071 209.153 146.241L208.819 146.776C208.766 146.857 208.697 146.909 208.612 146.933C208.531 146.954 208.44 146.933 208.339 146.873C208.242 146.816 208.131 146.747 208.005 146.666C207.88 146.585 207.726 146.509 207.544 146.436C207.366 146.359 207.153 146.294 206.907 146.241C206.664 146.189 206.374 146.163 206.039 146.163C205.549 146.163 205.106 146.243 204.709 146.405C204.313 146.563 203.975 146.792 203.695 147.091C203.416 147.387 203.202 147.747 203.052 148.172C202.902 148.593 202.827 149.066 202.827 149.592C202.827 150.139 202.904 150.628 203.058 151.061C203.216 151.49 203.438 151.856 203.726 152.16C204.017 152.459 204.369 152.688 204.782 152.846C205.195 153.004 205.658 153.083 206.172 153.083C206.577 153.083 206.935 153.038 207.246 152.949C207.562 152.856 207.87 152.728 208.169 152.567V150.654H206.816C206.739 150.654 206.676 150.632 206.627 150.588C206.583 150.543 206.561 150.489 206.561 150.424V149.756H209.231ZM212.212 153.938H211.034V145.24H212.212V153.938ZM219.803 152.979L219.797 153.938H214.437V145.24H219.797V146.199H215.614V149.088H219.001V150.011H215.614V152.979H219.803ZM229.916 152.979L229.91 153.938H224.55V145.24H229.91V146.199H225.727V149.088H229.114V150.011H225.727V152.979H229.916ZM237.439 146.229H234.622V153.938H233.45V146.229H230.628V145.24H237.439V146.229ZM249.007 149.592C249.007 150.244 248.904 150.837 248.698 151.371C248.491 151.905 248.2 152.362 247.824 152.743C247.447 153.123 246.994 153.418 246.464 153.629C245.938 153.835 245.355 153.938 244.716 153.938H241.468V145.24H244.716C245.355 145.24 245.938 145.345 246.464 145.555C246.994 145.762 247.447 146.057 247.824 146.442C248.2 146.822 248.491 147.279 248.698 147.814C248.904 148.348 249.007 148.941 249.007 149.592ZM247.799 149.592C247.799 149.058 247.726 148.58 247.581 148.16C247.435 147.739 247.229 147.383 246.962 147.091C246.695 146.8 246.371 146.577 245.99 146.424C245.61 146.27 245.185 146.193 244.716 146.193H242.646V152.985H244.716C245.185 152.985 245.61 152.909 245.99 152.755C246.371 152.601 246.695 152.38 246.962 152.093C247.229 151.802 247.435 151.446 247.581 151.025C247.726 150.604 247.799 150.126 247.799 149.592ZM256.07 152.979L256.064 153.938H250.704V145.24H256.064V146.199H251.881V149.088H255.269V150.011H251.881V152.979H256.07ZM266.924 152.142C266.988 152.142 267.045 152.168 267.094 152.221L267.561 152.724C267.205 153.137 266.772 153.459 266.262 153.69C265.756 153.92 265.143 154.036 264.423 154.036C263.799 154.036 263.233 153.928 262.723 153.714C262.213 153.495 261.778 153.192 261.418 152.803C261.058 152.411 260.778 151.941 260.58 151.395C260.382 150.849 260.283 150.248 260.283 149.592C260.283 148.937 260.386 148.336 260.592 147.789C260.799 147.243 261.088 146.774 261.46 146.381C261.837 145.988 262.286 145.685 262.808 145.471C263.33 145.252 263.907 145.143 264.538 145.143C265.157 145.143 265.703 145.242 266.177 145.44C266.65 145.638 267.067 145.908 267.427 146.247L267.039 146.788C267.015 146.828 266.982 146.863 266.942 146.891C266.905 146.915 266.855 146.927 266.79 146.927C266.717 146.927 266.628 146.889 266.523 146.812C266.418 146.731 266.28 146.642 266.11 146.545C265.94 146.448 265.728 146.361 265.473 146.284C265.218 146.203 264.904 146.163 264.532 146.163C264.083 146.163 263.672 146.241 263.3 146.399C262.927 146.553 262.606 146.778 262.334 147.073C262.067 147.368 261.859 147.729 261.709 148.154C261.56 148.578 261.485 149.058 261.485 149.592C261.485 150.134 261.562 150.618 261.715 151.043C261.873 151.468 262.086 151.828 262.353 152.123C262.624 152.415 262.942 152.637 263.306 152.791C263.674 152.945 264.071 153.022 264.495 153.022C264.754 153.022 264.987 153.008 265.194 152.979C265.404 152.947 265.596 152.898 265.77 152.834C265.948 152.769 266.112 152.688 266.262 152.591C266.416 152.49 266.567 152.37 266.717 152.233C266.786 152.172 266.855 152.142 266.924 152.142ZM276.797 149.592C276.797 150.244 276.694 150.843 276.488 151.389C276.281 151.931 275.99 152.399 275.614 152.791C275.237 153.184 274.784 153.489 274.254 153.708C273.728 153.922 273.145 154.03 272.506 154.03C271.866 154.03 271.284 153.922 270.758 153.708C270.231 153.489 269.78 153.184 269.404 152.791C269.027 152.399 268.736 151.931 268.53 151.389C268.323 150.843 268.22 150.244 268.22 149.592C268.22 148.941 268.323 148.344 268.53 147.801C268.736 147.255 269.027 146.786 269.404 146.393C269.78 145.997 270.231 145.689 270.758 145.471C271.284 145.252 271.866 145.143 272.506 145.143C273.145 145.143 273.728 145.252 274.254 145.471C274.784 145.689 275.237 145.997 275.614 146.393C275.99 146.786 276.281 147.255 276.488 147.801C276.694 148.344 276.797 148.941 276.797 149.592ZM275.589 149.592C275.589 149.058 275.517 148.578 275.371 148.154C275.225 147.729 275.019 147.37 274.752 147.079C274.485 146.784 274.161 146.557 273.78 146.399C273.4 146.241 272.975 146.163 272.506 146.163C272.04 146.163 271.617 146.241 271.237 146.399C270.857 146.557 270.531 146.784 270.26 147.079C269.993 147.37 269.786 147.729 269.641 148.154C269.495 148.578 269.422 149.058 269.422 149.592C269.422 150.126 269.495 150.606 269.641 151.031C269.786 151.452 269.993 151.81 270.26 152.105C270.531 152.397 270.857 152.621 271.237 152.779C271.617 152.933 272.04 153.01 272.506 153.01C272.975 153.01 273.4 152.933 273.78 152.779C274.161 152.621 274.485 152.397 274.752 152.105C275.019 151.81 275.225 151.452 275.371 151.031C275.517 150.606 275.589 150.126 275.589 149.592ZM287.533 145.24V153.938H286.501V147.547C286.501 147.462 286.503 147.37 286.507 147.273C286.515 147.176 286.523 147.077 286.531 146.976L283.545 152.415C283.452 152.597 283.31 152.688 283.12 152.688H282.95C282.76 152.688 282.618 152.597 282.525 152.415L279.478 146.952C279.502 147.166 279.514 147.364 279.514 147.547V153.938H278.482V145.24H279.35C279.456 145.24 279.536 145.25 279.593 145.27C279.65 145.29 279.704 145.347 279.757 145.44L282.762 150.794C282.81 150.891 282.857 150.992 282.901 151.098C282.95 151.203 282.994 151.31 283.035 151.419C283.075 151.31 283.118 151.203 283.162 151.098C283.207 150.988 283.255 150.885 283.308 150.788L286.258 145.44C286.307 145.347 286.359 145.29 286.416 145.27C286.477 145.25 286.56 145.24 286.665 145.24H287.533ZM298.808 145.24V153.938H297.776V147.547C297.776 147.462 297.778 147.37 297.782 147.273C297.79 147.176 297.798 147.077 297.806 146.976L294.82 152.415C294.727 152.597 294.585 152.688 294.395 152.688H294.225C294.035 152.688 293.893 152.597 293.8 152.415L290.753 146.952C290.777 147.166 290.789 147.364 290.789 147.547V153.938H289.757V145.24H290.625C290.731 145.24 290.811 145.25 290.868 145.27C290.925 145.29 290.979 145.347 291.032 145.44L294.037 150.794C294.085 150.891 294.132 150.992 294.176 151.098C294.225 151.203 294.269 151.31 294.31 151.419C294.35 151.31 294.393 151.203 294.437 151.098C294.482 150.988 294.53 150.885 294.583 150.788L297.533 145.44C297.582 145.347 297.634 145.29 297.691 145.27C297.752 145.25 297.835 145.24 297.94 145.24H298.808ZM304.389 153.004C304.749 153.004 305.071 152.943 305.354 152.822C305.637 152.7 305.876 152.53 306.071 152.312C306.269 152.093 306.419 151.832 306.52 151.529C306.625 151.225 306.678 150.891 306.678 150.527V145.24H307.849V150.527C307.849 151.029 307.768 151.494 307.606 151.923C307.448 152.352 307.22 152.724 306.92 153.04C306.625 153.352 306.263 153.597 305.834 153.775C305.405 153.953 304.923 154.042 304.389 154.042C303.855 154.042 303.373 153.953 302.944 153.775C302.515 153.597 302.151 153.352 301.852 153.04C301.552 152.724 301.322 152.352 301.16 151.923C301.002 151.494 300.923 151.029 300.923 150.527V145.24H302.094V150.521C302.094 150.885 302.145 151.219 302.246 151.523C302.351 151.826 302.501 152.087 302.695 152.306C302.894 152.524 303.135 152.696 303.418 152.822C303.705 152.943 304.029 153.004 304.389 153.004ZM317.007 145.24V153.938H316.418C316.325 153.938 316.246 153.922 316.182 153.89C316.121 153.858 316.06 153.803 316 153.726L310.967 147.17C310.975 147.271 310.982 147.37 310.986 147.468C310.99 147.565 310.992 147.656 310.992 147.741V153.938H309.96V145.24H310.567C310.619 145.24 310.664 145.244 310.7 145.252C310.737 145.256 310.769 145.266 310.797 145.282C310.826 145.294 310.854 145.315 310.882 145.343C310.911 145.367 310.941 145.4 310.973 145.44L316.006 151.99C315.998 151.885 315.989 151.784 315.981 151.686C315.977 151.585 315.975 151.49 315.975 151.401V145.24H317.007ZM320.409 153.938H319.231V145.24H320.409V153.938ZM328.74 152.142C328.805 152.142 328.862 152.168 328.91 152.221L329.378 152.724C329.022 153.137 328.589 153.459 328.079 153.69C327.573 153.92 326.96 154.036 326.239 154.036C325.616 154.036 325.05 153.928 324.54 153.714C324.03 153.495 323.595 153.192 323.235 152.803C322.874 152.411 322.595 151.941 322.397 151.395C322.199 150.849 322.1 150.248 322.1 149.592C322.1 148.937 322.203 148.336 322.409 147.789C322.615 147.243 322.905 146.774 323.277 146.381C323.654 145.988 324.103 145.685 324.625 145.471C325.147 145.252 325.723 145.143 326.355 145.143C326.974 145.143 327.52 145.242 327.994 145.44C328.467 145.638 328.884 145.908 329.244 146.247L328.856 146.788C328.831 146.828 328.799 146.863 328.759 146.891C328.722 146.915 328.672 146.927 328.607 146.927C328.534 146.927 328.445 146.889 328.34 146.812C328.235 146.731 328.097 146.642 327.927 146.545C327.757 146.448 327.545 146.361 327.29 146.284C327.035 146.203 326.721 146.163 326.349 146.163C325.899 146.163 325.489 146.241 325.116 146.399C324.744 146.553 324.422 146.778 324.151 147.073C323.884 147.368 323.676 147.729 323.526 148.154C323.376 148.578 323.301 149.058 323.301 149.592C323.301 150.134 323.378 150.618 323.532 151.043C323.69 151.468 323.902 151.828 324.169 152.123C324.441 152.415 324.758 152.637 325.123 152.791C325.491 152.945 325.887 153.022 326.312 153.022C326.571 153.022 326.804 153.008 327.01 152.979C327.221 152.947 327.413 152.898 327.587 152.834C327.765 152.769 327.929 152.688 328.079 152.591C328.232 152.49 328.384 152.37 328.534 152.233C328.603 152.172 328.672 152.142 328.74 152.142ZM335.363 150.709L333.997 147.17C333.956 147.065 333.914 146.944 333.869 146.806C333.825 146.664 333.782 146.515 333.742 146.357C333.657 146.685 333.57 146.958 333.481 147.176L332.115 150.709H335.363ZM337.815 153.938H336.904C336.799 153.938 336.714 153.912 336.649 153.86C336.585 153.807 336.536 153.74 336.504 153.659L335.69 151.559H331.787L330.974 153.659C330.95 153.732 330.903 153.797 330.834 153.853C330.765 153.91 330.68 153.938 330.579 153.938H329.669L333.147 145.24H334.337L337.815 153.938ZM343.988 146.229H341.171V153.938H340V146.229H337.177V145.24H343.988V146.229ZM346.456 153.938H345.279V145.24H346.456V153.938ZM356.718 149.592C356.718 150.244 356.615 150.843 356.409 151.389C356.202 151.931 355.911 152.399 355.534 152.791C355.158 153.184 354.705 153.489 354.175 153.708C353.649 153.922 353.066 154.03 352.426 154.03C351.787 154.03 351.204 153.922 350.678 153.708C350.152 153.489 349.701 153.184 349.325 152.791C348.948 152.399 348.657 151.931 348.45 151.389C348.244 150.843 348.141 150.244 348.141 149.592C348.141 148.941 348.244 148.344 348.45 147.801C348.657 147.255 348.948 146.786 349.325 146.393C349.701 145.997 350.152 145.689 350.678 145.471C351.204 145.252 351.787 145.143 352.426 145.143C353.066 145.143 353.649 145.252 354.175 145.471C354.705 145.689 355.158 145.997 355.534 146.393C355.911 146.786 356.202 147.255 356.409 147.801C356.615 148.344 356.718 148.941 356.718 149.592ZM355.51 149.592C355.51 149.058 355.437 148.578 355.292 148.154C355.146 147.729 354.94 147.37 354.672 147.079C354.405 146.784 354.082 146.557 353.701 146.399C353.321 146.241 352.896 146.163 352.426 146.163C351.961 146.163 351.538 146.241 351.158 146.399C350.777 146.557 350.452 146.784 350.181 147.079C349.913 147.37 349.707 147.729 349.561 148.154C349.416 148.578 349.343 149.058 349.343 149.592C349.343 150.126 349.416 150.606 349.561 151.031C349.707 151.452 349.913 151.81 350.181 152.105C350.452 152.397 350.777 152.621 351.158 152.779C351.538 152.933 351.961 153.01 352.426 153.01C352.896 153.01 353.321 152.933 353.701 152.779C354.082 152.621 354.405 152.397 354.672 152.105C354.94 151.81 355.146 151.452 355.292 151.031C355.437 150.606 355.51 150.126 355.51 149.592ZM365.451 145.24V153.938H364.862C364.769 153.938 364.69 153.922 364.625 153.89C364.564 153.858 364.504 153.803 364.443 153.726L359.411 147.17C359.419 147.271 359.425 147.37 359.429 147.468C359.433 147.565 359.435 147.656 359.435 147.741V153.938H358.403V145.24H359.01C359.063 145.24 359.107 145.244 359.144 145.252C359.18 145.256 359.212 145.266 359.241 145.282C359.269 145.294 359.297 145.315 359.326 145.343C359.354 145.367 359.384 145.4 359.417 145.44L364.449 151.99C364.441 151.885 364.433 151.784 364.425 151.686C364.421 151.585 364.419 151.49 364.419 151.401V145.24H365.451Z" fill="white"/>
</svg>
