<svg width="145" height="51" viewBox="0 0 145 51" fill="none" xmlns="http://www.w3.org/2000/svg">
<path fill-rule="evenodd" clip-rule="evenodd" d="M80.9197 0.00743441C81.0796 0.102099 81.4952 1.0803 81.8149 2.18472C82.1666 3.25758 82.5822 4.89843 82.774 5.81352C82.9659 6.69705 83.1257 8.11702 83.1257 8.969C83.1257 9.78942 82.9019 11.3041 82.6142 12.3454C82.3584 13.3867 81.7509 14.9329 81.2714 15.7848C80.7918 16.6368 79.417 18.4354 78.1702 19.7607C76.9233 21.0545 75.5805 22.8531 75.1329 23.7051C74.3975 25.1882 74.3336 25.5668 74.3975 29.5427C74.4295 32.0671 74.3655 33.6764 74.1737 33.4871C74.0458 33.2978 73.4704 30.3947 72.9268 27.0183C72.3833 23.642 71.9357 19.6661 71.9357 18.183C71.9357 15.9742 72.0956 15.2169 72.767 13.7653C73.3425 12.5978 74.5254 11.1147 76.5076 9.18988C78.0742 7.61214 79.6408 5.78196 79.9605 5.08776C80.3122 4.33044 80.568 3.00514 80.6 1.83761C80.6 0.733195 80.7598 -0.08723 80.9197 0.00743441ZM74.9091 2.62648C75.0689 2.68959 75.1968 2.84737 75.1648 2.97359C75.1648 3.09981 74.3336 4.45666 73.3425 6.0344C72.3194 7.61214 71.1045 9.88409 70.6249 11.0832C70.1453 12.3138 69.5698 14.3018 69.346 15.5008C69.1542 16.763 69.0583 18.5301 69.1862 19.603C69.3141 20.6443 69.6018 22.3482 69.8895 23.3895C70.1453 24.4309 70.9446 26.8606 71.648 28.7539C72.3513 30.6471 72.9908 32.4142 73.0867 32.6351C73.1506 32.8244 73.0547 33.0138 72.8949 33.0138C72.703 33.0138 72.3513 32.5404 72.0636 32.004C71.7759 31.436 70.8807 29.8898 70.0814 28.5961C69.2501 27.3023 68.3549 25.4091 68.0352 24.4309C67.5876 23.0424 67.4277 21.3069 67.2999 12.0298L68.3229 9.97875C68.9943 8.59034 70.1773 7.04416 71.9677 5.21398C73.4384 3.7309 74.7492 2.56337 74.9091 2.62648ZM60.2342 3.44691C60.426 3.51002 60.8416 4.04645 61.1294 4.64599C61.4491 5.24553 62.3123 7.13882 64.3905 12.0298L64.4224 17.8675C64.4544 21.086 64.5823 24.1153 64.7102 24.6517C64.87 25.1882 65.5095 26.5766 66.1489 27.7757C66.7883 29.0063 68.259 30.9311 69.4419 32.1933C70.6569 33.424 71.616 34.6862 71.616 34.9702C71.616 35.2857 71.4242 35.6328 71.2004 35.7275C71.0085 35.8221 70.3371 35.6644 69.7617 35.4119C69.2181 35.1279 68.1631 34.907 67.4597 34.907C66.7563 34.907 65.6373 35.1279 64.966 35.4119C64.3265 35.6644 63.4313 36.2008 63.0477 36.5795C62.632 36.9581 61.9926 37.8416 61.6409 38.5358C61.2892 39.2301 60.9056 40.4922 60.8097 41.3758C60.7137 42.2909 60.8416 43.49 61.0974 44.2157C61.3212 44.9099 61.8967 45.8881 62.3443 46.393C62.7919 46.8979 63.8469 47.6552 64.7421 48.1285C66.053 48.7912 66.8523 48.9489 69.0583 48.9805C71.1684 49.0436 71.8398 49.1698 71.9997 49.5485C72.1595 49.8325 72.1915 50.2742 72.0956 50.5267C71.9677 50.9053 71.584 50.9684 70.2412 50.8107C69.346 50.716 67.5556 50.432 66.3407 50.1796C64.7421 49.864 63.5912 49.3907 62.3763 48.5703C61.3212 47.8445 60.3621 46.8663 59.9784 46.109C59.4988 45.1939 59.307 44.2788 59.339 42.7957C59.339 41.4073 59.5947 40.2398 60.0743 39.1669C60.458 38.2834 61.3212 37.0528 61.9606 36.3901C62.6001 35.7275 63.6551 34.907 64.2626 34.5915C64.87 34.276 66.1489 33.8973 67.0761 33.7395C68.0032 33.6133 68.7386 33.3924 68.7386 33.2346C68.7386 33.1084 67.9393 32.5404 66.9482 31.9725C65.9571 31.436 64.6462 30.5525 64.0068 30.0161C63.3993 29.4796 62.632 28.5014 62.3123 27.8072C61.9926 27.113 61.577 25.2197 61.3851 23.6104C61.2253 22.0327 60.8097 19.7607 60.5219 18.5617C60.2022 17.331 60.0104 15.1537 59.9784 13.292C59.9784 11.5565 60.1702 9.34766 60.394 8.40101C60.7137 6.94949 60.7137 6.44461 60.2981 5.24553C60.0104 4.45666 59.8186 3.69935 59.8186 3.57313C59.8505 3.41535 60.0104 3.35224 60.2342 3.44691ZM89.52 13.4498C89.6799 13.4498 89.8397 13.6391 89.8397 13.8284C89.8397 14.0493 89.2642 16.1319 88.5609 18.4039C87.8575 20.7074 86.9943 23.1371 86.6746 23.7682C86.3229 24.4309 85.4916 25.5037 84.8202 26.1348C84.1488 26.7659 82.6781 27.7126 81.5271 28.249C80.3762 28.7539 79.0014 29.6374 78.4579 30.2369C77.8824 30.8049 77.2749 31.5938 77.0831 31.9725C76.7954 32.572 76.8273 32.7298 77.211 32.856C77.6266 32.9822 77.6586 33.6133 77.211 41.1549L78.33 41.3442C78.9375 41.4704 81.1755 41.4389 87.1221 41.0602V37.8101C87.1221 35.2857 87.2181 34.4968 87.6017 34.276C87.8575 34.1182 88.2731 33.9604 88.465 33.9604C88.7847 33.9604 88.8486 35.6959 88.6248 49.8956L87.8575 49.9902C87.1221 50.0849 87.1221 50.0849 87.1221 42.3224L84.5644 42.2278C83.1577 42.1647 80.9517 42.1962 77.3709 42.4802V50.0534L75.6124 49.8956L75.7084 41.0602C75.8043 33.9288 75.9641 31.6253 76.4437 29.0694C76.7954 27.3339 77.4028 25.1882 77.8504 24.3362C78.2661 23.4527 79.1293 22.2851 79.8327 21.6856C80.5041 21.086 82.3904 19.9501 84.0529 19.1612C86.2909 18.0883 87.282 17.4257 87.8255 16.6053C88.2411 16.0057 88.5928 15.4062 88.5928 15.28C88.6248 15.1537 88.7527 14.712 88.9126 14.2702C89.0724 13.8284 89.3282 13.4498 89.52 13.4498ZM142.209 33.3924C142.657 33.4871 142.816 34.1497 143.104 37.4314C143.296 39.6087 143.712 42.8589 143.999 44.689C144.319 46.5192 144.671 48.3809 144.863 48.8543C145.118 49.6431 145.054 49.7694 144.351 50.0534C143.903 50.2427 143.456 50.3689 143.296 50.3689C143.168 50.3689 142.944 49.1383 142.816 47.6236C142.689 46.0774 142.369 43.1429 142.113 41.0602C141.857 38.9776 141.633 37.2421 141.633 37.179C141.633 37.1474 141.538 37.1159 141.378 37.1159C141.25 37.0843 140.259 38.8514 139.204 40.9656C138.117 43.1113 137.094 45.3517 136.902 45.9512C136.71 46.5508 136.326 47.2765 136.038 47.529C135.697 47.8445 135.431 47.8971 135.239 47.6867C135.079 47.4974 133.992 45.3201 132.841 42.7957C131.69 40.2714 130.667 38.1887 130.539 38.1256C130.379 38.0941 129.964 39.6403 129.58 41.5967C129.165 43.5531 128.685 46.2668 128.461 47.6236C128.173 49.2329 127.886 50.1165 127.566 50.2111C127.31 50.3058 126.959 50.2742 126.831 50.148C126.671 49.9902 127.086 47.6236 127.694 44.8468C128.333 42.07 129.005 38.599 129.197 37.1159C129.388 35.6328 129.644 34.2444 129.772 34.0235C129.868 33.8026 130.188 33.6449 130.443 33.708C130.699 33.7711 131.722 35.8221 132.841 38.5358C133.896 41.1233 134.951 43.5846 135.175 43.9633C135.399 44.3735 135.687 44.689 135.879 44.689C136.038 44.689 136.486 44.2157 136.838 43.6477C137.189 43.1113 138.053 41.2811 138.788 39.6403C139.523 37.9994 140.451 35.8852 140.866 34.9702C141.442 33.7395 141.825 33.2978 142.209 33.3924ZM9.65537 33.7395C10.8383 33.7711 11.9573 33.9288 12.1491 34.1182C12.341 34.3075 12.4369 34.7493 12.341 35.1279C12.2451 35.5381 11.9573 35.8537 11.7655 35.8537C11.5417 35.8537 10.9342 35.6644 10.3907 35.3804C9.87917 35.1279 8.92003 34.907 8.31257 34.907C7.70511 34.907 6.52217 35.1279 5.72289 35.4119C4.85966 35.6959 3.93249 36.327 3.45291 36.895C3.00531 37.463 2.42983 38.3781 2.11011 38.9145C1.82237 39.4825 1.50266 40.5554 1.40674 41.2811C1.27886 42.07 1.37477 43.1744 1.59857 43.9002C1.82237 44.5944 2.33391 45.5726 2.71757 46.109C3.10123 46.6454 4.18826 47.4659 5.1474 48.0023C6.68203 48.8543 7.19357 48.9489 12.6287 49.012L12.7886 51L10.9662 50.8107C9.94311 50.716 8.21666 50.432 7.12963 50.1796C6.01063 49.9271 4.57191 49.4854 3.93249 49.1383C3.26109 48.8227 2.238 48.0338 1.69449 47.4027C1.119 46.7717 0.511543 45.9197 0.319714 45.4779C0.159857 45.0361 0 43.8055 0 42.7011C0 41.4073 0.2238 40.2714 0.6714 39.3247C1.02309 38.5358 1.66251 37.4314 2.11011 36.8634C2.52574 36.327 3.45291 35.5066 4.15629 35.0648C4.85966 34.6231 5.91471 34.1497 6.4902 33.9604C7.03371 33.8026 8.47243 33.708 9.65537 33.7395ZM102.309 33.8026C103.619 33.8657 104.834 34.0551 104.962 34.1813C105.122 34.3391 105.154 34.7493 105.058 35.1279C104.962 35.5381 104.642 35.8537 104.387 35.8537C104.131 35.8537 103.428 35.6328 102.852 35.3488C102.085 34.9386 101.381 34.8755 100.071 35.0333C99.0795 35.1595 97.8645 35.5381 97.2891 35.9484C96.7455 36.327 95.9143 37.2105 95.4667 37.9048C95.0511 38.599 94.5075 39.798 94.2837 40.5869C94.0599 41.3758 93.996 42.5118 94.0919 43.1113C94.2198 43.7108 94.6994 44.8468 95.2109 45.6357C95.8184 46.5823 96.6816 47.3712 97.8646 48.0023C99.3992 48.8227 99.9107 48.9489 105.346 49.012V49.9271C105.346 50.8422 105.346 50.8422 103.587 50.7476C102.628 50.6844 100.934 50.432 99.8148 50.1796C98.7278 49.9271 97.2891 49.4538 96.6177 49.1383C95.9782 48.7912 94.9871 48.0654 94.4116 47.4659C93.8681 46.8979 93.2287 46.0459 93.0688 45.541C92.877 45.0677 92.7171 43.8055 92.7171 42.7011C92.7171 41.0918 92.909 40.366 93.7402 38.7252C94.3477 37.5576 95.3388 36.2323 96.0742 35.6328C96.7775 35.0648 97.9285 34.3706 98.6319 34.1182C99.4951 33.8026 100.678 33.708 102.309 33.8026ZM23.8187 33.9604C25.0336 33.9604 26.5683 34.0866 27.1757 34.276C27.7832 34.4337 28.7103 34.9702 29.2219 35.4435C29.7015 35.9168 30.3409 36.7372 30.6286 37.2737C30.9803 37.9048 31.1721 38.9776 31.1402 40.5869C31.1402 42.4486 30.9803 43.3322 30.3409 44.689C29.8933 45.6357 29.0301 46.961 28.4226 47.6236C27.8151 48.2863 26.7601 49.1067 26.0567 49.4538C25.1295 49.864 24.0745 50.0534 22.2841 50.0534C20.3338 50.0534 19.5026 49.8956 18.2877 49.296C17.4564 48.9174 16.4653 48.1601 16.0497 47.6552C15.634 47.1503 15.1545 46.1721 14.9626 45.4779C14.8028 44.7837 14.7069 43.4268 14.8028 42.4802C14.8667 41.5336 15.2184 40.1136 15.5701 39.3247C15.9218 38.5358 16.6891 37.3368 17.2965 36.6741C17.904 35.9799 19.0869 35.0964 19.9821 34.6862C21.1651 34.1497 22.1562 33.9604 23.8187 33.9604ZM18.5434 36.9581C18.1278 37.3052 17.4884 38.2834 17.0727 39.1669C16.5612 40.2398 16.3054 41.3127 16.3054 42.5433C16.3054 43.5531 16.4973 44.8468 16.7211 45.3832C16.9449 45.9512 17.6482 46.8032 18.2557 47.245C18.8631 47.6867 19.8543 48.2232 20.4617 48.4441C21.0692 48.6334 22.2521 48.7912 23.0834 48.7912C23.9466 48.7912 25.0976 48.5703 25.6411 48.2863C26.2166 48.0023 26.9519 47.529 27.3036 47.245C27.6233 46.961 28.1668 46.2037 28.4865 45.541C28.8063 44.9099 29.2219 43.6477 29.4137 42.7957C29.6375 41.7229 29.6375 40.6816 29.3817 39.5456C29.2219 38.6621 28.8063 37.5576 28.4865 37.1159C28.1668 36.6741 27.4315 36.0746 26.824 35.7906C26.2166 35.5066 25.0017 35.191 24.1384 35.0964C22.8915 34.9386 22.1882 35.0648 20.9093 35.6013C19.9821 36.0115 18.9271 36.611 18.5434 36.9581ZM39.4208 33.992C42.8097 33.992 45.7831 34.1182 46.0389 34.276C46.2946 34.4022 46.4225 34.6862 46.2627 34.8755C46.1348 35.0964 44.9199 35.2226 43.1614 35.2226C41.2112 35.2226 40.2201 35.3488 40.0602 35.6013C39.9323 35.8221 39.7725 38.9776 39.7405 42.638C39.6765 46.2983 39.5806 49.4538 39.4847 49.6431C39.3888 49.864 39.0051 50.0534 37.8861 50.0534L38.1419 35.0648L35.9359 35.2541C34.721 35.3804 33.538 35.3804 33.3142 35.2541C33.0904 35.1595 32.9945 34.8124 33.1224 34.4968C33.2823 34.0235 33.8577 33.9604 39.4208 33.992ZM52.8488 34.0551C55.5024 34.0866 57.3887 34.2444 57.4527 34.4337C57.4846 34.6231 57.4207 34.9386 57.2928 35.1595C57.101 35.475 56.4935 35.475 54.1916 35.1595C51.9536 34.8755 51.1223 34.8755 50.4189 35.1595C49.5557 35.5381 49.5557 35.5697 49.7156 40.7447L52.4971 40.8078C55.1827 40.9025 55.3106 40.934 55.2147 41.5967C55.1507 42.2909 55.0228 42.2909 52.4331 42.2278C50.4509 42.1647 49.6516 42.2278 49.4918 42.5433C49.3639 42.7642 49.236 43.9948 49.236 45.2255C49.236 46.4877 49.3639 47.8761 49.5557 48.3178C49.8115 48.9174 50.0673 49.0752 50.5788 48.9805C50.9944 48.8858 52.6569 48.7596 57.2289 48.4756V50.0534H47.6374L47.5735 42.3855C47.5095 36.3586 47.6055 34.6546 47.9252 34.3706C48.2129 34.1182 49.9074 34.0235 52.8488 34.0551ZM116.856 33.9604C118.87 33.9604 119.733 34.1182 120.852 34.6546C121.971 35.2226 122.483 35.759 123.09 36.9581C123.729 38.1887 123.889 39.0092 123.889 40.7447C123.889 42.4486 123.697 43.3637 123.058 44.689C122.61 45.6357 121.747 46.961 121.14 47.6236C120.532 48.2863 119.413 49.1383 118.614 49.4854C117.591 49.9587 116.536 50.148 114.937 50.1165C113.211 50.1165 112.348 49.9271 111.101 49.3276C110.206 48.8858 109.182 48.1916 108.799 47.7814C108.415 47.4027 107.936 46.3299 107.712 45.4779C107.52 44.5944 107.392 43.1744 107.488 42.3224C107.584 41.4389 107.936 40.1136 108.287 39.3247C108.639 38.5358 109.406 37.3683 110.014 36.7057C110.621 36.043 111.804 35.1279 112.699 34.7177C113.978 34.1182 114.809 33.9604 116.856 33.9604ZM111.325 36.895C110.909 37.2737 110.237 38.2834 109.79 39.1669C109.118 40.4922 108.991 41.0918 109.087 43.0166C109.15 44.689 109.342 45.5095 109.854 46.1721C110.206 46.6454 111.165 47.4027 111.932 47.813C112.795 48.2863 114.074 48.6334 115.257 48.7281C116.792 48.8543 117.463 48.7281 118.518 48.1916C119.285 47.8445 120.213 47.0556 120.628 46.4877C121.044 45.9512 121.651 44.5628 121.971 43.4268C122.483 41.6913 122.515 41.1549 122.195 39.798C121.971 38.9145 121.523 37.747 121.172 37.179C120.82 36.6426 119.957 35.8852 119.253 35.5381C118.55 35.191 117.431 34.907 116.76 34.907C116.12 34.9386 114.777 35.2226 113.818 35.5697C112.859 35.9168 111.74 36.5163 111.325 36.895Z" fill="#0C154B"/>
</svg>
