<svg width="192" height="68" viewBox="0 0 192 68" fill="none" xmlns="http://www.w3.org/2000/svg">
<path fill-rule="evenodd" clip-rule="evenodd" d="M107.149 0.00991254C107.361 0.136132 107.911 1.4404 108.334 2.91295C108.8 4.34344 109.35 6.53124 109.604 7.75136C109.858 8.9294 110.07 10.8227 110.07 11.9587C110.07 13.0526 109.774 15.0721 109.393 16.4605C109.054 17.8489 108.25 19.9105 107.615 21.0464C106.979 22.1824 105.159 24.5806 103.508 26.3477C101.857 28.0727 100.079 30.4708 99.4863 31.6068C98.5126 33.5842 98.4279 34.0891 98.5126 39.3903C98.5549 42.7562 98.4702 44.9019 98.2162 44.6494C98.0469 44.397 97.2849 40.5263 96.5652 36.0245C95.8455 31.5226 95.2528 26.2214 95.2528 24.244C95.2528 21.2989 95.4645 20.2891 96.3535 18.3538C97.1155 16.7971 98.6819 14.8196 101.307 12.2532C103.381 10.1495 105.455 7.70928 105.879 6.78368C106.344 5.77392 106.683 4.00685 106.725 2.45015C106.725 0.977593 106.937 -0.116307 107.149 0.00991254ZM99.1899 3.50198C99.4016 3.58612 99.5709 3.79649 99.5286 3.96478C99.5286 4.13307 98.4279 5.94222 97.1155 8.04587C95.7608 10.1495 94.1521 13.1788 93.5171 14.7776C92.8821 16.4184 92.12 19.069 91.8237 20.6678C91.5697 22.3507 91.4427 24.7068 91.612 26.1373C91.7814 27.5257 92.1624 29.7976 92.5434 31.1861C92.8821 32.5745 93.9404 35.8141 94.8718 38.3385C95.8032 40.8629 96.6499 43.219 96.7769 43.5135C96.8615 43.7659 96.7345 44.0183 96.5229 44.0183C96.2688 44.0183 95.8032 43.3873 95.4221 42.672C95.0411 41.9147 93.8558 39.8531 92.7974 38.1281C91.6967 36.4031 90.5113 33.8787 90.088 32.5745C89.4953 30.7233 89.2836 28.4092 89.1143 16.0398L90.469 13.305C91.358 11.4538 92.9244 9.39221 95.2952 6.95197C97.2425 4.97453 98.9783 3.41783 99.1899 3.50198ZM79.7584 4.59588C80.0124 4.68002 80.5627 5.39527 80.9437 6.19465C81.3671 6.99404 82.5101 9.51843 85.2618 16.0398L85.3042 23.8233C85.3465 28.1147 85.5159 32.1537 85.6852 32.869C85.8969 33.5842 86.7436 35.4354 87.5902 37.0342C88.4369 38.6751 90.3843 41.2415 91.9507 42.9244C93.5594 44.5653 94.8295 46.2482 94.8295 46.6269C94.8295 47.0476 94.5755 47.5104 94.2791 47.6366C94.0251 47.7629 93.1361 47.5525 92.3741 47.2159C91.6544 46.8372 90.2573 46.5427 89.326 46.5427C88.3946 46.5427 86.9129 46.8372 86.0239 47.2159C85.1772 47.5525 83.9918 48.2677 83.4838 48.7726C82.9334 49.2775 82.0868 50.4555 81.6211 51.3811C81.1554 52.3067 80.6474 53.9897 80.5204 55.1677C80.3934 56.3878 80.5627 57.9866 80.9014 58.9543C81.1977 59.8799 81.9598 61.1842 82.5524 61.8573C83.1451 62.5305 84.5422 63.5403 85.7275 64.1713C87.4632 65.0549 88.5216 65.2653 91.4427 65.3073C94.2368 65.3915 95.1258 65.5598 95.3375 66.0646C95.5492 66.4433 95.5915 67.0323 95.4645 67.3689C95.2952 67.8738 94.7871 67.9579 93.0091 67.7476C91.8237 67.6213 89.453 67.2427 87.8443 66.9061C85.7275 66.4854 84.2035 65.8543 82.5948 64.7604C81.1977 63.7927 79.9277 62.4884 79.4197 61.4787C78.7847 60.2586 78.5307 59.0384 78.573 57.061C78.573 55.2098 78.9117 53.6531 79.5467 52.2226C80.0547 51.0446 81.1977 49.4037 82.0444 48.5202C82.8911 47.6366 84.2882 46.5427 85.0925 46.122C85.8969 45.7013 87.5903 45.1964 88.818 44.986C90.0457 44.8177 91.0194 44.5232 91.0194 44.3129C91.0194 44.1446 89.961 43.3873 88.6486 42.6299C87.3362 41.9147 85.6005 40.7366 84.7538 40.0214C83.9495 39.3062 82.9334 38.0019 82.5101 37.0763C82.0868 36.1507 81.5364 33.6263 81.2824 31.4806C81.0707 29.3769 80.5204 26.3477 80.1394 24.7489C79.716 23.108 79.462 20.205 79.4197 17.7227C79.4197 15.4087 79.6737 12.4635 79.97 11.2014C80.3934 9.26599 80.3934 8.59282 79.843 6.99404C79.462 5.94222 79.208 4.93246 79.208 4.76417C79.2503 4.5538 79.462 4.46966 79.7584 4.59588ZM118.537 17.933C118.749 17.933 118.96 18.1855 118.96 18.4379C118.96 18.7324 118.198 21.5093 117.267 24.5385C116.335 27.6098 115.192 30.8495 114.769 31.6909C114.303 32.5745 113.203 34.005 112.314 34.8464C111.425 35.6879 109.477 36.9501 107.953 37.6653C106.429 38.3385 104.609 39.5165 103.889 40.3159C103.127 41.0732 102.323 42.1251 102.069 42.6299C101.688 43.4293 101.73 43.6397 102.238 43.808C102.788 43.9763 102.831 44.8177 102.238 54.8732L103.72 55.1256C104.524 55.2939 107.488 55.2519 115.362 54.747V50.4135C115.362 47.0476 115.489 45.9958 115.997 45.7013C116.335 45.4909 116.886 45.2805 117.14 45.2805C117.563 45.2805 117.648 47.5946 117.351 66.5274L116.335 66.6537C115.362 66.7799 115.362 66.7799 115.362 56.4299L111.975 56.3037C110.112 56.2195 107.191 56.2616 102.45 56.6403V66.7378L100.121 66.5274L100.248 54.747C100.375 45.2385 100.587 42.1671 101.222 38.7592C101.688 36.4452 102.492 33.5842 103.085 32.4482C103.635 31.2702 104.778 29.7135 105.709 28.9141C106.598 28.1147 109.096 26.6001 111.298 25.5483C114.261 24.1178 115.573 23.2342 116.293 22.1404C116.843 21.341 117.309 20.5416 117.309 20.3733C117.351 20.205 117.521 19.616 117.732 19.0269C117.944 18.4379 118.283 17.933 118.537 17.933ZM188.304 44.5232C188.897 44.6494 189.109 45.533 189.49 49.9086C189.744 52.8116 190.294 57.1451 190.675 59.5854C191.098 62.0256 191.564 64.5079 191.818 65.139C192.157 66.1909 192.072 66.3592 191.141 66.7378C190.548 66.9902 189.955 67.1585 189.744 67.1585C189.574 67.1585 189.278 65.5177 189.109 63.4982C188.939 61.4366 188.516 57.5238 188.177 54.747C187.839 51.9702 187.542 49.6561 187.542 49.572C187.542 49.5299 187.415 49.4878 187.204 49.4878C187.034 49.4458 185.722 51.8019 184.325 54.6208C182.885 57.4817 181.531 60.4689 181.277 61.2683C181.023 62.0677 180.515 63.0354 180.134 63.372C179.682 63.7927 179.329 63.8628 179.075 63.5823C178.864 63.3299 177.424 60.4268 175.9 57.061C174.376 53.6952 173.021 50.9183 172.852 50.8342C172.64 50.7921 172.09 52.8537 171.582 55.4622C171.032 58.0708 170.397 61.689 170.1 63.4982C169.719 65.6439 169.338 66.822 168.915 66.9482C168.576 67.0744 168.111 67.0323 167.941 66.864C167.73 66.6537 168.28 63.4982 169.084 59.7958C169.931 56.0933 170.82 51.4653 171.074 49.4878C171.328 47.5104 171.667 45.6592 171.836 45.3647C171.963 45.0702 172.386 44.8598 172.725 44.944C173.064 45.0281 174.418 47.7629 175.9 51.3811C177.297 54.8311 178.694 58.1128 178.991 58.6177C179.287 59.1647 179.668 59.5854 179.922 59.5854C180.134 59.5854 180.726 58.9543 181.192 58.197C181.658 57.4817 182.801 55.0415 183.774 52.8537C184.748 50.6659 185.976 47.847 186.526 46.6269C187.288 44.986 187.796 44.397 188.304 44.5232ZM12.785 44.986C14.3514 45.0281 15.8331 45.2385 16.0871 45.4909C16.3411 45.7433 16.4682 46.3324 16.3411 46.8372C16.2141 47.3842 15.8331 47.8049 15.5791 47.8049C15.2828 47.8049 14.4784 47.5525 13.7587 47.1738C13.0814 46.8372 11.8113 46.5427 11.007 46.5427C10.2026 46.5427 8.63626 46.8372 7.57789 47.2159C6.43486 47.5946 5.20715 48.436 4.57213 49.1933C3.97945 49.9507 3.21743 51.1708 2.79408 51.886C2.41307 52.6433 1.98973 54.0738 1.86272 55.0415C1.69338 56.0933 1.82039 57.5659 2.11673 58.5336C2.41307 59.4592 3.09042 60.7634 3.59844 61.4787C4.10645 62.1939 5.54583 63.2878 6.81587 64.0031C8.84793 65.139 9.52528 65.2653 16.7222 65.3494L16.9338 68L14.5208 67.7476C13.1661 67.6213 10.88 67.2427 9.44061 66.9061C7.9589 66.5695 6.05385 65.9805 5.20715 65.5177C4.31813 65.097 2.96342 64.0451 2.24373 63.2037C1.48171 62.3622 0.677353 61.2262 0.423346 60.6372C0.211673 60.0482 0 58.4073 0 56.9348C0 55.2098 0.296342 53.6952 0.889026 52.433C1.35471 51.3811 2.2014 49.9086 2.79408 49.1513C3.34443 48.436 4.57213 47.3421 5.5035 46.7531C6.43486 46.1641 7.8319 45.533 8.59392 45.2805C9.31361 45.0702 11.2187 44.944 12.785 44.986ZM135.471 45.0702C137.206 45.1543 138.815 45.4068 138.984 45.5751C139.196 45.7854 139.238 46.3324 139.111 46.8372C138.984 47.3842 138.561 47.8049 138.222 47.8049C137.884 47.8049 136.952 47.5104 136.19 47.1318C135.174 46.5848 134.243 46.5007 132.507 46.711C131.195 46.8793 129.586 47.3842 128.824 47.9311C128.104 48.436 127.004 49.6141 126.411 50.5397C125.861 51.4653 125.141 53.0641 124.845 54.1159C124.548 55.1677 124.464 56.6823 124.591 57.4817C124.76 58.2811 125.395 59.7958 126.072 60.8476C126.877 62.1098 128.02 63.1616 129.586 64.0031C131.618 65.097 132.296 65.2653 139.492 65.3494V66.5695C139.492 67.7896 139.492 67.7896 137.164 67.6634C135.894 67.5793 133.65 67.2427 132.169 66.9061C130.729 66.5695 128.824 65.9384 127.935 65.5177C127.088 65.0549 125.776 64.0872 125.014 63.2878C124.294 62.5305 123.448 61.3945 123.236 60.7214C122.982 60.0903 122.77 58.4073 122.77 56.9348C122.77 54.7891 123.024 53.8214 124.125 51.6336C124.929 50.0769 126.242 48.3098 127.215 47.5104C128.147 46.7531 129.671 45.8275 130.602 45.4909C131.745 45.0702 133.312 44.944 135.471 45.0702ZM31.5393 45.2805C33.148 45.2805 35.18 45.4488 35.9844 45.7013C36.7888 45.9116 38.0165 46.6269 38.6938 47.258C39.3288 47.8891 40.1755 48.983 40.5565 49.6982C41.0222 50.5397 41.2762 51.9702 41.2339 54.1159C41.2339 56.5982 41.0222 57.7762 40.1755 59.5854C39.5828 60.8476 38.4398 62.6146 37.6354 63.4982C36.8311 64.3817 35.434 65.4756 34.5027 65.9384C33.275 66.4854 31.8779 66.7378 29.5072 66.7378C26.9248 66.7378 25.8241 66.5274 24.2154 65.7281C23.1147 65.2232 21.8023 64.2134 21.252 63.5403C20.7016 62.8671 20.0666 61.5628 19.8126 60.6372C19.6009 59.7116 19.4739 57.9025 19.6009 56.6403C19.6856 55.3781 20.1513 53.4848 20.6169 52.433C21.0826 51.3811 22.0987 49.7824 22.903 48.8988C23.7074 47.9732 25.2737 46.7952 26.4591 46.2482C28.0255 45.533 29.3379 45.2805 31.5393 45.2805ZM24.5541 49.2775C24.0037 49.7403 23.157 51.0446 22.6067 52.2226C21.9293 53.6531 21.5906 55.0836 21.5906 56.7244C21.5906 58.0708 21.8446 59.7958 22.141 60.511C22.4373 61.2683 23.3687 62.4043 24.173 62.9933C24.9774 63.5823 26.2898 64.2976 27.0941 64.5921C27.8985 64.8445 29.4649 65.0549 30.5656 65.0549C31.7086 65.0549 33.2326 64.7604 33.9523 64.3817C34.7144 64.0031 35.6881 63.372 36.1537 62.9933C36.5771 62.6146 37.2968 61.6049 37.7201 60.7214C38.1435 59.8799 38.6938 58.197 38.9478 57.061C39.2442 55.6305 39.2442 54.2421 38.9055 52.7275C38.6938 51.5494 38.1435 50.0769 37.7201 49.4878C37.2968 48.8988 36.3231 48.0994 35.5187 47.7208C34.7144 47.3421 33.1056 46.9214 31.9626 46.7952C30.3116 46.5848 29.3802 46.7531 27.6868 47.4683C26.4591 48.0153 25.0621 48.8147 24.5541 49.2775ZM52.1985 45.3226C56.686 45.3226 60.6231 45.4909 60.9618 45.7013C61.3005 45.8696 61.4698 46.2482 61.2581 46.5007C61.0888 46.7952 59.4801 46.9635 57.1517 46.9635C54.5693 46.9635 53.2569 47.1318 53.0452 47.4683C52.8759 47.7629 52.6642 51.9702 52.6219 56.8506C52.5372 61.7311 52.4102 65.9384 52.2832 66.1909C52.1562 66.4854 51.6482 66.7378 50.1665 66.7378L50.5052 46.7531L47.5841 47.0055C45.9754 47.1738 44.409 47.1738 44.1126 47.0055C43.8163 46.8793 43.6893 46.4165 43.8586 45.9958C44.0703 45.3647 44.8323 45.2805 52.1985 45.3226ZM69.9791 45.4068C73.4928 45.4488 75.9906 45.6592 76.0752 45.9116C76.1176 46.1641 76.0329 46.5848 75.8636 46.8793C75.6096 47.3 74.8052 47.3 71.7571 46.8793C68.7937 46.5007 67.693 46.5007 66.7616 46.8793C65.6186 47.3842 65.6186 47.4263 65.8303 54.3263L69.5134 54.4104C73.0695 54.5366 73.2388 54.5787 73.1118 55.4622C73.0272 56.3878 72.8578 56.3878 69.4287 56.3037C66.804 56.2195 65.7456 56.3037 65.5339 56.7244C65.3646 57.0189 65.1953 58.6598 65.1953 60.3006C65.1953 61.9836 65.3646 63.8348 65.6186 64.4238C65.9573 65.2232 66.296 65.4335 66.9733 65.3073C67.5237 65.1811 69.7251 65.0128 75.7789 64.6342V66.7378H63.0785L62.9939 56.5141C62.9092 48.4781 63.0362 46.2061 63.4595 45.8275C63.8405 45.4909 66.0843 45.3647 69.9791 45.4068ZM154.733 45.2805C157.4 45.2805 158.543 45.4909 160.025 46.2062C161.506 46.9635 162.184 47.6787 162.988 49.2775C163.835 50.9183 164.047 52.0122 164.047 54.3263C164.047 56.5982 163.792 57.8183 162.946 59.5854C162.353 60.8476 161.21 62.6146 160.406 63.4982C159.601 64.3817 158.12 65.5177 157.061 65.9805C155.707 66.6116 154.31 66.864 152.193 66.822C149.907 66.822 148.764 66.5695 147.113 65.7701C145.927 65.1811 144.573 64.2555 144.065 63.7085C143.557 63.2037 142.922 61.7732 142.625 60.6372C142.371 59.4592 142.202 57.5659 142.329 56.4299C142.456 55.2519 142.922 53.4848 143.387 52.433C143.853 51.3811 144.869 49.8244 145.673 48.9409C146.478 48.0574 148.044 46.8372 149.229 46.2903C150.923 45.4909 152.023 45.2805 154.733 45.2805ZM147.409 49.1933C146.859 49.6982 145.97 51.0446 145.377 52.2226C144.488 53.9897 144.319 54.7891 144.446 57.3555C144.53 59.5854 144.784 60.6793 145.462 61.5628C145.927 62.1939 147.197 63.2037 148.213 63.7506C149.356 64.3817 151.05 64.8445 152.616 64.9707C154.648 65.139 155.537 64.9707 156.934 64.2555C157.95 63.7927 159.178 62.7409 159.728 61.9836C160.279 61.2683 161.083 59.4171 161.506 57.9025C162.184 55.5884 162.226 54.8732 161.803 53.0641C161.506 51.886 160.914 50.3293 160.448 49.572C159.982 48.8568 158.839 47.847 157.908 47.3842C156.977 46.9214 155.495 46.5427 154.606 46.5427C153.759 46.5848 151.981 46.9635 150.711 47.4263C149.441 47.8891 147.959 48.6885 147.409 49.1933Z" fill="white"/>
</svg>
