<svg width="29" height="22" viewBox="0 0 29 22" fill="none" xmlns="http://www.w3.org/2000/svg">
<path d="M25.219 0.212402H3.7262C1.80763 0.212402 0.248047 1.77198 0.248047 3.69056V18.38C0.248047 20.2986 1.80763 21.8582 3.7262 21.8582H25.2131C27.1317 21.8582 28.6912 20.2986 28.6912 18.38V3.69645C28.6971 1.77787 27.1375 0.212402 25.219 0.212402ZM27.1081 18.38C27.1081 19.4217 26.2606 20.2692 25.219 20.2692H3.7262C2.68452 20.2692 1.83705 19.4217 1.83705 18.38V3.69645C1.83705 2.65476 2.68452 1.80729 3.7262 1.80729H25.2131C26.2548 1.80729 27.1022 2.65476 27.1022 3.69645V18.38H27.1081Z" fill="#010628"/>
<path d="M18.1855 10.8546L25.1418 4.61632C25.4655 4.32206 25.4949 3.82182 25.2007 3.49225C24.9064 3.16856 24.4062 3.13913 24.0766 3.43339L14.4837 12.0435L12.6122 10.3721C12.6064 10.3662 12.6005 10.3603 12.6005 10.3544C12.5593 10.3132 12.5181 10.2779 12.471 10.2426L4.85554 3.42751C4.52597 3.13325 4.02572 3.16267 3.73146 3.49225C3.4372 3.82182 3.46663 4.32206 3.7962 4.61632L10.8349 10.9076L3.82563 17.4696C3.50783 17.7698 3.49017 18.27 3.79032 18.5937C3.94922 18.7585 4.16108 18.8468 4.37295 18.8468C4.56716 18.8468 4.76137 18.7761 4.91439 18.6349L12.0296 11.9787L13.9599 13.7031C14.113 13.8384 14.3013 13.9032 14.4896 13.9032C14.6779 13.9032 14.8722 13.8326 15.0193 13.6972L17.0026 11.9199L24.0766 18.6408C24.2296 18.7879 24.4297 18.8585 24.6239 18.8585C24.8358 18.8585 25.0418 18.7761 25.2007 18.6114C25.5008 18.2935 25.4891 17.7874 25.1713 17.4873L18.1855 10.8546Z" fill="#010628"/>
</svg>
