<svg width="16" height="16" viewBox="0 0 16 16" fill="none" xmlns="http://www.w3.org/2000/svg">
<path d="M7.99987 0.532959C3.87614 0.532959 0.533203 3.8759 0.533203 7.99963C0.533203 12.1234 3.87614 15.4663 7.99987 15.4663C12.1236 15.4663 15.4665 12.1234 15.4665 7.99963C15.4665 3.8759 12.1236 0.532959 7.99987 0.532959ZM5.31654 3.49884C5.47038 3.48977 5.60943 3.58172 5.71485 3.74493L6.73568 5.68086C6.84316 5.91027 6.78208 6.15589 6.62175 6.3198L6.15417 6.78738C6.12531 6.82692 6.10632 6.87146 6.10586 6.92044C6.28517 7.61453 6.8291 8.25477 7.309 8.69506C7.78889 9.13534 8.30467 9.73145 8.97422 9.87266C9.05698 9.89575 9.15836 9.90402 9.21758 9.84898L9.76081 9.29573C9.94832 9.1536 10.2196 9.08472 10.4198 9.20094H10.4289L12.2709 10.2883C12.5413 10.4578 12.5693 10.7854 12.3758 10.9847L11.107 12.2434C10.9197 12.4355 10.6708 12.5001 10.4289 12.5004C9.35935 12.4684 8.34874 11.9434 7.51864 11.4039C6.1561 10.4127 4.90627 9.18327 4.12162 7.69794C3.82069 7.07509 3.46718 6.28039 3.50092 5.58519C3.50393 5.32366 3.57469 5.06744 3.75887 4.89887L5.02761 3.63012C5.12645 3.54602 5.22422 3.50429 5.31654 3.49884Z" fill="white"/>
</svg>
