<svg width="25" height="25" viewBox="0 0 25 25" fill="none" xmlns="http://www.w3.org/2000/svg">
<path d="M19.7675 15.2831C19.2722 14.7681 18.6747 14.4928 18.0415 14.4928C17.4135 14.4928 16.8109 14.763 16.2952 15.278L14.6816 16.8842C14.5488 16.8128 14.416 16.7465 14.2884 16.6802C14.1046 16.5884 13.9309 16.5018 13.7829 16.41C12.2714 15.4514 10.8978 14.2021 9.58033 12.5858C8.94204 11.7801 8.5131 11.102 8.20162 10.4136C8.62034 10.0312 9.00842 9.63349 9.38629 9.25107C9.52927 9.1083 9.67224 8.96043 9.81522 8.81766C10.8876 7.74688 10.8876 6.35997 9.81522 5.2892L8.42119 3.89719C8.26289 3.73912 8.09949 3.57596 7.9463 3.41279C7.63992 3.09666 7.31822 2.77032 6.98631 2.46439C6.49099 1.97489 5.89865 1.71484 5.27568 1.71484C4.65271 1.71484 4.05016 1.97489 3.53952 2.46439C3.53442 2.46949 3.53442 2.46949 3.52931 2.47458L1.79315 4.22352C1.13954 4.87618 0.766776 5.67162 0.685074 6.59452C0.562522 8.08341 1.00167 9.47032 1.33869 10.3779C2.16591 12.6062 3.40165 14.6712 5.24504 16.8842C7.48162 19.5509 10.1727 21.6568 13.2467 23.1406C14.4211 23.6964 15.9888 24.3541 17.7403 24.4663C17.8475 24.4714 17.9598 24.4765 18.062 24.4765C19.2415 24.4765 20.2322 24.0533 21.0083 23.212C21.0134 23.2018 21.0237 23.1967 21.0288 23.1865C21.2943 22.8652 21.6007 22.5746 21.9224 22.2636C22.1419 22.0545 22.3666 21.8352 22.5862 21.6058C23.0917 21.0806 23.3573 20.4687 23.3573 19.8416C23.3573 19.2093 23.0866 18.6025 22.5709 18.0926L19.7675 15.2831ZM21.5956 20.6523C21.5905 20.6523 21.5905 20.6574 21.5956 20.6523C21.3964 20.8664 21.1922 21.0602 20.9726 21.2744C20.6407 21.5905 20.3037 21.9219 19.9871 22.2941C19.4713 22.8448 18.8637 23.1049 18.0671 23.1049C17.9905 23.1049 17.9088 23.1049 17.8322 23.0998C16.3156 23.0029 14.9062 22.4114 13.8492 21.9066C10.959 20.5095 8.42119 18.526 6.31227 16.0123C4.571 13.9166 3.40676 11.979 2.6357 9.89863C2.16081 8.629 1.98719 7.63981 2.06379 6.7067C2.11485 6.11013 2.34464 5.61553 2.76846 5.19232L4.50973 3.45358C4.75994 3.21903 5.02547 3.09156 5.28589 3.09156C5.60759 3.09156 5.86802 3.28532 6.03142 3.44848C6.03653 3.45358 6.04163 3.45868 6.04674 3.46378C6.35822 3.75442 6.65439 4.05526 6.96588 4.37649C7.12418 4.53965 7.28758 4.70282 7.45098 4.87108L8.84502 6.26309C9.38629 6.80358 9.38629 7.30328 8.84502 7.84376C8.69693 7.99163 8.55395 8.1395 8.40587 8.28227C7.97694 8.72078 7.56843 9.1287 7.12418 9.52641C7.11396 9.53661 7.10375 9.54171 7.09865 9.55191C6.6595 9.99041 6.7412 10.4187 6.83312 10.7094C6.83822 10.7247 6.84333 10.74 6.84843 10.7553C7.21098 11.6323 7.72162 12.4583 8.49778 13.4424L8.50289 13.4475C9.91224 15.1811 11.3982 16.5323 13.0373 17.5674C13.2467 17.7 13.4612 17.8071 13.6654 17.9091C13.8492 18.0008 14.0228 18.0875 14.1709 18.1793C14.1914 18.1895 14.2118 18.2048 14.2322 18.215C14.4058 18.3017 14.5692 18.3425 14.7377 18.3425C15.1616 18.3425 15.4271 18.0773 15.5139 17.9906L17.2603 16.2468C17.4339 16.0734 17.7096 15.8644 18.0313 15.8644C18.3479 15.8644 18.6083 16.0632 18.7666 16.2366C18.7718 16.2417 18.7718 16.2417 18.7769 16.2468L21.5905 19.0563C22.1164 19.5764 22.1164 20.1118 21.5956 20.6523Z" fill="#010628"/>
<path d="M13.7271 6.06475C15.065 6.2891 16.2803 6.92137 17.2505 7.89017C18.2207 8.85897 18.8488 10.0725 19.0785 11.4084C19.1347 11.745 19.4258 11.9795 19.7577 11.9795C19.7985 11.9795 19.8343 11.9744 19.8751 11.9693C20.253 11.9081 20.5032 11.5512 20.4419 11.1739C20.1662 9.55752 19.4002 8.08393 18.2309 6.91627C17.0615 5.74862 15.5858 4.98378 13.9671 4.70843C13.5892 4.64725 13.2369 4.8971 13.1705 5.26932C13.1041 5.64154 13.3492 6.00356 13.7271 6.06475Z" fill="#010628"/>
<path d="M24.8104 10.9749C24.356 8.3133 23.0998 5.8913 21.1696 3.96391C19.2394 2.03651 16.8139 0.782171 14.1484 0.328365C13.7756 0.262079 13.4233 0.517026 13.3569 0.889248C13.2956 1.26657 13.5458 1.6184 13.9237 1.68468C16.3032 2.0875 18.4734 3.21436 20.1994 4.9327C21.9253 6.65614 23.0487 8.82319 23.4521 11.1993C23.5083 11.5358 23.7994 11.7704 24.1313 11.7704C24.1721 11.7704 24.2079 11.7653 24.2487 11.7602C24.6215 11.7041 24.8768 11.3472 24.8104 10.9749Z" fill="#010628"/>
</svg>
