<svg width="20" height="25" viewBox="0 0 20 25" fill="none" xmlns="http://www.w3.org/2000/svg">
<path d="M9.73635 0.664062C4.39807 0.664062 0.0524902 5.00965 0.0524902 10.3479C0.0524902 10.9557 0.108203 11.5686 0.224693 12.1662C0.229757 12.2017 0.250017 12.308 0.290535 12.4903C0.437414 13.1437 0.655199 13.7869 0.938827 14.3998C1.98217 16.8562 4.27652 20.6295 9.31091 24.6712C9.43753 24.7725 9.58947 24.8231 9.74142 24.8231C9.89336 24.8231 10.0453 24.7725 10.1719 24.6712C15.2012 20.6295 17.5007 16.8562 18.544 14.3998C18.8276 13.7869 19.0454 13.1488 19.1923 12.4903C19.2328 12.308 19.2531 12.2017 19.2581 12.1662C19.3696 11.5686 19.4303 10.9557 19.4303 10.3479C19.4202 5.00965 15.0746 0.664062 9.73635 0.664062ZM17.9008 11.9282C17.9008 11.9383 17.8957 11.9484 17.8957 11.9585C17.8906 11.9839 17.8755 12.0598 17.8501 12.1763C17.8501 12.1814 17.8501 12.1814 17.8501 12.1865C17.7235 12.7537 17.5361 13.3058 17.2879 13.8376C17.2829 13.8426 17.2829 13.8528 17.2778 13.8578C16.3307 16.1015 14.2541 19.5253 9.73635 23.2581C5.21857 19.5253 3.14201 16.1015 2.19489 13.8578C2.18983 13.8528 2.18983 13.8426 2.18476 13.8376C1.94165 13.3108 1.75426 12.7537 1.62257 12.1865C1.62257 12.1814 1.62257 12.1814 1.62257 12.1763C1.59218 12.0598 1.58205 11.9839 1.57699 11.9585C1.57699 11.9484 1.57192 11.9383 1.57192 11.9231C1.47063 11.4014 1.41998 10.8747 1.41998 10.3429C1.41998 5.75924 5.15272 2.02649 9.73635 2.02649C14.32 2.02649 18.0527 5.75924 18.0527 10.3429C18.0527 10.8797 18.0021 11.4115 17.9008 11.9282Z" fill="#010628"/>
<path d="M9.7358 4.30615C6.34746 4.30615 3.58716 7.06646 3.58716 10.4548C3.58716 13.8432 6.34746 16.6035 9.7358 16.6035C13.1241 16.6035 15.8844 13.8432 15.8844 10.4548C15.8844 7.06646 13.1241 4.30615 9.7358 4.30615ZM9.7358 15.236C7.09705 15.236 4.95465 13.0885 4.95465 10.4548C4.95465 7.82112 7.10212 5.67365 9.7358 5.67365C12.3695 5.67365 14.517 7.82112 14.517 10.4548C14.517 13.0885 12.3746 15.236 9.7358 15.236Z" fill="#010628"/>
</svg>
